<?xml version="1.0" encoding="utf-8"?>
<!-- Generator: Adobe Illustrator 23.0.1, SVG Export Plug-In . SVG Version: 6.00 Build 0)  -->
<svg version="1.1" id="Calque_1" xmlns="http://www.w3.org/2000/svg" xmlns:xlink="http://www.w3.org/1999/xlink" x="0px" y="0px"
	 viewBox="0 0 729.3 292.1" style="enable-background:new 0 0 729.3 292.1;" xml:space="preserve">
<style type="text/css">
	.st0{fill:#FFA200;}
</style>
<title>LogoLabSudVectoriel</title>
<path id="path3915" class="st0" d="M474.2,0.7c-0.1,14.8-0.2,25.4-0.1,38.1h-54.8l49.8,90c0,0,5.4,11.1,6.7,15.9
	c1.1,4.7,1.8,9.5,2.2,14.4c0.4,4.3-0.3,9.2-1.7,14.6c-1.6,6.1-4.3,11.8-7.8,17c-3.3,4.6-11.5,10.1-11.5,10.1H380v-36h58
	c0,0-49.8-88.1-53.2-95.8s-4.8-10.5-6-15.1c-1.3-4.8-1.9-9.8-1.9-14.7c0.1-5.4,1.2-10.6,3.1-15.6c2.1-5.9,5.6-11.1,10.2-15.3
	c4.7-4.3,13.9-7.8,13.9-7.8C427.2,0.4,451.8,0.7,474.2,0.7z"/>
<path id="path3933" d="M248.1,0.9l0.1,200l87.9-0.1c3.5-1.5,6.8-3.4,9.8-5.6c4.7-3.9,9-8.2,13-12.8c3.7-4.3,6.7-9.1,8.9-14.2
	c2.7-5.6,5.6-14.2,6.3-20.5c0.7-6.6,0.4-13.3-0.9-19.8c-1.6-7.1-4.6-13.7-8.8-19.6c-5.3-7.4-15.6-12.5-15.6-12.5s10.2-7.8,13-12.5
	c2.7-4.5,4.6-9.5,5.7-14.7c1.3-6.4,1.8-12.9,1.3-19.3c-0.5-7.9-0.6-21.6-15.6-35.2c-9.6-8.1-11.9-9.4-21-13.1L248.1,0.9z M292.2,39
	H317c0,0,4.9,5.6,5.8,8.8c1.8,3.3,2.8,10,3,13.5c-0.1,4.6-1.4,9.1-3.7,13c-1.5,2.2-4.8,6.6-4.8,6.6l-25.2-0.1L292.2,39z M292.1,118
	l26,0.1c0,0,6,6.1,7.6,10c1.7,4.2,1.8,9.6,1.7,13.5c-0.1,3.2-0.8,6.3-1.9,9.3c-0.9,2.5-2.2,5-3.7,7.2c-1.6,2.1-3.3,4-5.1,5.8
	l-24.5,0.1L292.1,118z"/>
<path id="path3905" d="M146.2,201.1l5.4-31l39.3-0.1l5.5,31l42.6,0.1L203.1,0.9l-62.3-0.2l-37.8,200.3L146.2,201.1z M171,56.2
	l13.9,78.9l-27.6-0.2L171,56.2z"/>
<path id="path3900" d="M0,0.8h43.9v163.1h58.3V201H0V0.8z"/>
<path id="path3947" class="st0" d="M483.6,53.2H526v88.1c0,0-0.3,4.8,2.7,13.7s6.4,12.2,6.4,12.2h21.7v-114H599v147.1h-33.2l-4-10.4
	c0,0-5,5.5-9.6,7.9s-13.3,2.5-13.3,2.5l-32.9,0.2c0,0-10.5-13.4-13.6-20.1s-4.5-11.7-6.1-18.9s-2.4-25.8-2.4-25.8L483.6,53.2z"/>
<path id="path3951" class="st0" d="M729.3,200.5V0l-42.5,0.3l0.1,59.1h-1.8c0,0,0.2-1.4-4.2-4.1s-10.8-2-10.8-2l-29.4-0.1
	c0,0-7.4,6.6-11.6,12.8s-11.6,18.3-13.6,26.6c-1.6,5.9-2.6,11.9-3.2,17.9c0,2.3-0.4,7.8-0.4,12.8s-0.3,11.9,0.5,19.2
	c0.9,8.3,2.6,16.4,5.2,24.4c2.6,7.6,6.8,14.3,10.4,19.9s12,13.5,12,13.5l29.9,0.1c0,0,8.2-0.1,12.5-1.6s5-2.6,6.8-4.1
	c1.4-1.4,2.5-3,3.3-4.8l4.6,10.6H729.3z M687,86.5l-0.2,80.8l-22.7-0.1c0,0-4-8.9-5.5-13.3c-1.6-4.4-2.7-9.1-3.1-13.8
	c-0.7-7-0.8-14.1-0.2-21.1c0.5-6.1,1.5-12.2,3.1-18.1c1.5-4.8,5.6-14.4,5.6-14.4L687,86.5z"/>
<g id="flowRoot3954">
	<path id="path3859" d="M9,256.3v20h3c3.4,0,6.1-0.9,7.9-2.6s2.7-4.2,2.7-7.5s-0.9-5.7-2.7-7.4s-4.5-2.5-7.9-2.5L9,256.3 M0.5,249.9
		h9c3.7-0.1,7.5,0.3,11.1,1.1c2.4,0.7,4.5,1.9,6.3,3.6c1.5,1.4,2.7,3.2,3.4,5.1c0.8,2.1,1.2,4.3,1.1,6.6c0,2.3-0.3,4.5-1.1,6.6
		c-0.8,1.9-1.9,3.7-3.4,5.1c-1.8,1.7-4,3-6.3,3.6c-3.6,0.8-7.3,1.2-11.1,1.1H0.6L0.5,249.9"/>
	<path id="path3861" d="M38.9,249.9h8.5v32.8h-8.5V249.9"/>
	<path id="path3863" d="M52.2,249.9h9.2l7.5,11.7l7.5-11.7h9.3l-12.5,19v13.8h-8.5v-13.8L52.2,249.9"/>
	<path id="path3865" d="M120.4,260.9l9,9.9c0.8-1,1.4-2.2,1.8-3.5c0.4-1.4,0.7-2.9,0.7-4.3h6.8c-0.2,2.4-0.7,4.8-1.6,7.1
		c-0.8,2-1.9,3.9-3.4,5.5l6.4,7.1h-9.3l-2.2-2.4c-1.5,1-3.1,1.8-4.8,2.3c-1.8,0.5-3.6,0.8-5.4,0.7c-3.4,0.2-6.7-0.9-9.4-3
		c-2.3-1.9-3.6-4.8-3.6-7.9c0-2,0.5-4,1.6-5.7c1.4-1.9,3.1-3.6,5.1-4.8c-0.6-0.7-1-1.5-1.4-2.3c-1.1-2.9-0.1-6.3,2.3-8.2
		c2.2-1.5,4.8-2.3,7.4-2.1c1.4,0,2.8,0.1,4.2,0.3c1.5,0.2,3,0.5,4.5,0.9v6.1c-1.2-0.6-2.6-1.2-3.9-1.6c-1.2-0.3-2.4-0.5-3.6-0.5
		c-0.9-0.1-1.8,0.2-2.6,0.7c-0.6,0.4-1,1.1-0.9,1.8c0,0.6,0.2,1.2,0.5,1.7C119.3,259.6,119.8,260.3,120.4,260.9 M116,266.4
		c-0.9,0.6-1.6,1.4-2.2,2.4c-1.3,2.4-0.8,5.3,1.1,7.2c1.2,1.2,2.8,1.8,4.5,1.8c0.9,0,1.9-0.1,2.8-0.4c0.9-0.3,1.7-0.8,2.4-1.4
		L116,266.4"/>
	<path id="path3867" d="M163.9,249.9h22.8v6.4h-14.4v6.1h13.5v6.4h-13.5v13.9h-8.5V249.9"/>
	<path id="path3869" d="M210.4,276.7h-13.2l-2.1,6h-8.5l12.1-32.8h10.1l12.2,32.8h-8.5L210.4,276.7 M199.3,270.6h9l-4.5-13
		L199.3,270.6"/>
	<path id="path3871" d="M239.4,262.6c1.1,0.1,2.1-0.2,3-0.9c1.4-1.4,1.4-3.7,0-5.2c-0.9-0.7-1.9-1-3-0.9h-4.7v6.9H239.4
		 M239.7,276.9c1.4,0.1,2.7-0.3,3.8-1.1c0.9-0.8,1.4-2,1.3-3.2c0.1-1.2-0.4-2.4-1.3-3.2c-1.1-0.8-2.5-1.2-3.8-1.1h-5v8.6
		L239.7,276.9 M247.6,265.1c1.7,0.5,3.2,1.5,4.2,2.9c1,1.5,1.6,3.4,1.5,5.2c0,3.2-1.1,5.5-3.2,7.1c-2.1,1.6-5.4,2.3-9.8,2.3h-14
		v-32.8H239c4.6,0,7.9,0.7,9.9,2.1s3.1,3.6,3.1,6.6c0,1.4-0.4,2.9-1.1,4.1C250,263.8,248.9,264.7,247.6,265.1"/>
	<path id="path3873" d="M261.6,249.9h8.4v26.4h14.9v6.4h-23.3V249.9"/>
	<path id="path3875" d="M311.1,276.7h-13.2l-2.1,6h-8.5l12.1-32.8h10.1l12.1,32.8h-8.5L311.1,276.7 M300,270.6h9l-4.5-13L300,270.6"
		/>
	<path id="path3877" d="M340.1,262.6c1.1,0.1,2.1-0.2,3-0.9c1.4-1.4,1.4-3.7,0-5.2c-0.9-0.6-1.9-1-3-0.9h-4.7v6.9H340.1
		 M340.4,276.9c1.4,0.1,2.7-0.3,3.8-1.1c0.9-0.8,1.4-2,1.3-3.2c0.1-1.2-0.4-2.4-1.3-3.2c-1.1-0.8-2.5-1.2-3.9-1.1h-5v8.6
		L340.4,276.9 M348.3,265.1c1.7,0.5,3.2,1.5,4.2,2.9c1,1.5,1.5,3.4,1.5,5.2c0,3.2-1.1,5.5-3.2,7.1s-5.4,2.3-9.8,2.3H327v-32.8h12.7
		c4.6,0,7.9,0.7,9.9,2.1c2,1.4,3.1,3.6,3.1,6.6c0,1.4-0.3,2.9-1.1,4.1C350.7,263.8,349.6,264.7,348.3,265.1"/>
	<path id="path3879" class="st0" d="M389.6,271.6c-1.3-0.1-2.6,0.2-3.7,0.8c-0.8,0.5-1.3,1.5-1.2,2.5c0,0.9,0.3,1.8,1,2.4
		c0.8,0.6,1.8,0.9,2.8,0.8c1.4,0,2.8-0.6,3.7-1.6c1-1.1,1.6-2.5,1.5-4v-0.9H389.6 M401.6,268.6v14h-7.9V279
		c-0.9,1.4-2.1,2.5-3.6,3.3c-1.5,0.7-3.1,1.1-4.8,1c-2.3,0.1-4.5-0.7-6.2-2.2c-1.6-1.5-2.4-3.6-2.4-5.8c0-2.9,1-5,3-6.4
		c2-1.3,5.1-2,9.4-2h4.6v-0.6c0.1-1.1-0.5-2.2-1.5-2.7c-1.4-0.7-3-1-4.6-0.9c-1.6,0-3.2,0.2-4.7,0.5c-1.4,0.3-2.8,0.8-4,1.5v-6
		c1.7-0.4,3.4-0.7,5.1-0.9c1.7-0.2,3.4-0.3,5.1-0.3c4.4,0,7.6,0.9,9.6,2.6S401.7,264.7,401.6,268.6 M387.2,246.6l6.2,8.3h-4.3
		l-8.1-8.1h6.2"/>
	<path id="path3881" class="st0" d="M427,249.9h10.8l7.5,17.6l7.5-17.6h10.8v32.8h-8v-24l-7.6,17.7h-5.4l-7.6-17.7v24h-8V249.9"/>
	<path id="path3883" class="st0" d="M484.2,263.1c-1.6-0.1-3.1,0.6-4,1.9c-1,1.6-1.5,3.5-1.4,5.4c-0.1,1.9,0.4,3.8,1.4,5.4
		c0.9,1.3,2.4,2,4,1.9c1.5,0.1,3-0.6,3.9-1.9c1-1.6,1.5-3.5,1.4-5.4c0.1-1.9-0.4-3.8-1.4-5.4C487.2,263.8,485.7,263,484.2,263.1
		 M484.2,257.5c4.2,0,7.5,1.1,9.9,3.4c2.4,2.3,3.6,5.4,3.6,9.5c0,4-1.2,7.2-3.6,9.5c-2.4,2.3-5.7,3.4-9.9,3.4c-4.2,0-7.6-1.1-10-3.4
		c-2.4-2.3-3.6-5.4-3.6-9.5c0-4,1.2-7.2,3.6-9.5C476.6,258.6,479.9,257.5,484.2,257.5"/>
	<path id="path3885" class="st0" d="M529.1,267.7v15h-7.9v-11.5c0-1.5,0-2.9-0.2-4.4c0-0.6-0.2-1.2-0.5-1.8
		c-0.3-0.5-0.7-0.9-1.3-1.2c-0.6-0.3-1.2-0.5-1.8-0.4c-1.5-0.1-3,0.7-3.9,1.9c-1,1.6-1.5,3.4-1.4,5.2v12.1h-7.9v-24.6h7.9v3.6
		c1-1.3,2.3-2.4,3.8-3.2c1.4-0.7,2.9-1,4.4-1c2.8,0,5,0.9,6.5,2.6C528.4,261.9,529.1,264.4,529.1,267.7"/>
	<path id="path3887" class="st0" d="M546.1,251.1v7h8.1v5.6h-8.1v10.4c-0.1,0.8,0.1,1.7,0.7,2.3c0.8,0.5,1.8,0.7,2.7,0.6h4v5.6h-6.8
		c-3.1,0-5.3-0.6-6.6-1.9s-1.9-3.5-1.9-6.6v-10.5h-3.9v-5.6h3.9v-7L546.1,251.1"/>
	<path id="path3889" class="st0" d="M567.9,279.1v12.9H560v-34h7.9v3.6c0.9-1.3,2.2-2.4,3.6-3.2c1.4-0.7,3-1,4.5-1
		c2.9,0,5.7,1.3,7.5,3.6c3.9,5.6,3.9,13,0,18.6c-1.8,2.3-4.5,3.7-7.5,3.6c-1.6,0-3.1-0.3-4.5-1C570,281.6,568.8,280.5,567.9,279.1
		 M573.1,263.2c-1.5-0.1-3,0.6-3.9,1.9c-1,1.6-1.5,3.5-1.3,5.3c-0.1,1.9,0.4,3.8,1.3,5.4c0.9,1.2,2.4,1.9,3.9,1.8
		c1.5,0.1,3-0.6,3.8-1.8c1.8-3.4,1.8-7.4,0-10.7C576.1,263.8,574.6,263.1,573.1,263.2"/>
	<path id="path3891" class="st0" d="M617.8,270.3v2.2h-18.4c0.1,1.6,0.8,3.1,2,4.1c1.4,1,3.1,1.5,4.8,1.4c1.7,0,3.4-0.3,5.1-0.7
		c1.9-0.6,3.7-1.3,5.4-2.2v6.1c-1.8,0.7-3.7,1.2-5.6,1.6c-1.8,0.4-3.7,0.5-5.6,0.5c-4.5,0-7.9-1.1-10.4-3.4
		c-2.5-2.3-3.7-5.4-3.7-9.5c0-4,1.2-7.2,3.6-9.5s5.7-3.5,10-3.4c3.4-0.2,6.8,1.1,9.3,3.5C616.7,263.5,618,266.9,617.8,270.3
		 M609.7,267.7c0.1-1.3-0.4-2.6-1.3-3.6c-0.9-0.9-2.1-1.4-3.4-1.4c-1.4-0.1-2.7,0.4-3.7,1.3c-1,1-1.6,2.3-1.8,3.7L609.7,267.7"/>
	<path id="path3893" class="st0" d="M624.8,248.5h7.9v34.2h-7.9V248.5"/>
	<path id="path3895" class="st0" d="M641.2,248.5h7.9v34.2h-7.9V248.5"/>
	<path id="path3897" class="st0" d="M657.7,258.1h7.9v24.6h-7.9V258.1 M657.7,248.5h7.9v6.4h-7.9V248.5"/>
	<path id="path3899" class="st0" d="M698.7,270.3v2.2h-18.4c0.1,1.6,0.8,3.1,2,4.1c1.4,1,3.1,1.5,4.8,1.4c1.7,0,3.4-0.3,5.1-0.7
		c1.9-0.5,3.7-1.3,5.4-2.2v6.1c-1.8,0.7-3.7,1.2-5.6,1.6c-1.8,0.4-3.7,0.5-5.6,0.5c-4.4,0-7.9-1.1-10.4-3.4
		c-2.5-2.3-3.7-5.4-3.7-9.5c0-4,1.2-7.2,3.6-9.5c2.4-2.3,5.8-3.5,10-3.4c6.6-0.4,12.3,4.6,12.8,11.2
		C698.8,269.2,698.8,269.8,698.7,270.3 M690.6,267.7c0.1-1.3-0.4-2.6-1.3-3.6c-0.9-0.9-2.1-1.4-3.4-1.4c-1.4-0.1-2.7,0.4-3.7,1.3
		c-1,1-1.6,2.3-1.8,3.7L690.6,267.7"/>
	<path id="path3901" class="st0" d="M724,264.8c-0.7-0.3-1.4-0.5-2.1-0.7c-0.7-0.2-1.3-0.2-2-0.2c-1.8-0.1-3.5,0.6-4.7,2
		c-1.2,1.6-1.8,3.6-1.6,5.6v11.3h-7.9v-24.6h7.9v4c0.8-1.4,2-2.6,3.5-3.5c1.5-0.8,3.1-1.2,4.7-1.1c0.3,0,0.5,0,0.8,0
		s0.8,0.1,1.3,0.1L724,264.8"/>
</g>
</svg>
