<?xml version="1.0" encoding="UTF-8" standalone="no"?>
<!-- Created with Inkscape (http://www.inkscape.org/) -->

<svg
   width="240.42473mm"
   height="101.0042mm"
   viewBox="0 0 240.42473 101.0042"
   version="1.1"
   id="svg1"
   inkscape:version="1.3 (0e150ed6c4, 2023-07-21)"
   sodipodi:docname="open_sign.svg"
   xmlns:inkscape="http://www.inkscape.org/namespaces/inkscape"
   xmlns:sodipodi="http://sodipodi.sourceforge.net/DTD/sodipodi-0.dtd"
   xmlns="http://www.w3.org/2000/svg"
   xmlns:svg="http://www.w3.org/2000/svg">
  <sodipodi:namedview
     id="namedview1"
     pagecolor="#ffffff"
     bordercolor="#000000"
     borderopacity="0.25"
     inkscape:showpageshadow="2"
     inkscape:pageopacity="0.0"
     inkscape:pagecheckerboard="0"
     inkscape:deskcolor="#d1d1d1"
     inkscape:document-units="mm"
     inkscape:zoom="0.76702441"
     inkscape:cx="304.42317"
     inkscape:cy="121.89964"
     inkscape:window-width="1920"
     inkscape:window-height="1057"
     inkscape:window-x="-8"
     inkscape:window-y="-8"
     inkscape:window-maximized="1"
     inkscape:current-layer="layer1" />
  <defs
     id="defs1">
    <clipPath
       clipPathUnits="userSpaceOnUse"
       id="clipPath7">
      <path
         d="M 0,500 H 500 V 0 H 0 Z"
         transform="translate(-385.05271,-275.6235)"
         id="path7" />
    </clipPath>
    <clipPath
       clipPathUnits="userSpaceOnUse"
       id="clipPath16">
      <path
         d="M 0,500 H 500 V 0 H 0 Z"
         transform="translate(-252.68071,-381.24611)"
         id="path16" />
    </clipPath>
    <clipPath
       clipPathUnits="userSpaceOnUse"
       id="clipPath21">
      <path
         d="M 0,500 H 500 V 0 H 0 Z"
         transform="translate(-162.78711,-243.21581)"
         id="path21" />
    </clipPath>
    <clipPath
       clipPathUnits="userSpaceOnUse"
       id="clipPath23">
      <path
         d="M 0,500 H 500 V 0 H 0 Z"
         transform="translate(-371.43551,-243.21581)"
         id="path23" />
    </clipPath>
    <clipPath
       clipPathUnits="userSpaceOnUse"
       id="clipPath31">
      <path
         d="M 0,500 H 500 V 0 H 0 Z"
         transform="translate(-90.4966,-176.7305)"
         id="path31" />
    </clipPath>
  </defs>
  <g
     inkscape:label="Calque 1"
     inkscape:groupmode="layer"
     id="layer1"
     transform="translate(8.6565671,-67.659767)">
    <rect
       style="fill:#377137;fill-opacity:1;stroke-width:0.488977"
       id="rect31"
       width="239.45599"
       height="93.975189"
       x="-7.6878257"
       y="67.659767"
       ry="17.168541" />
    <path
       d="m 46.795084,87.498827 q 0.06555,-0.284069 0.163886,-0.600915 0.09833,-0.327772 0.262217,-0.58999 0.163886,-0.273143 0.426104,-0.447955 0.262217,-0.185737 0.666469,-0.185737 0.382401,0 0.677396,0.218515 0.30592,0.207588 0.546286,0.426103 0.284069,0.185738 0.546287,0.753876 0.262218,0.568138 0.535361,1.398493 0.284069,0.830356 0.600915,1.879226 0.327772,1.048871 0.710173,2.196073 0.393326,1.147202 0.874058,2.349032 0.480733,1.190905 1.092574,2.327181 0.09833,0.174812 0.22944,0.415178 0.131109,0.22944 0.262218,0.437029 0.142034,0.207589 0.251292,0.349624 0.120183,0.142034 0.174811,0.142034 0.03278,0 0.07648,-0.163886 0.0437,-0.163886 0.09833,-0.393326 0.05463,-0.22944 0.109257,-0.469807 0.06555,-0.240366 0.120183,-0.393326 0.207589,-0.502584 0.447955,-1.147202 0.251292,-0.655544 0.546287,-1.573305 0.305921,-0.928688 0.66647,-2.196073 0.360549,-1.267385 0.797578,-3.004576 0.109258,-0.426104 0.229441,-0.961464 0.131108,-0.546287 0.240366,-1.103499 0.120183,-0.568139 0.207589,-1.103499 0.0874,-0.535361 0.120183,-0.928688 0,-0.06555 0.01093,-0.22944 0.01093,-0.163886 0.03278,-0.371475 0.03278,-0.207589 0.07648,-0.426104 0.0437,-0.22944 0.109257,-0.415177 0.07648,-0.185738 0.185737,-0.305921 0.109258,-0.120183 0.262218,-0.120183 0.15296,0 0.371475,0.0437 0.22944,0.0437 0.415178,0.131109 0.207589,0.284069 0.371475,0.688321 0.174811,0.393326 0.174811,1.070722 0,0.426103 -0.0874,1.027019 -0.08741,0.589989 -0.229441,1.27831 -0.131109,0.677396 -0.30592,1.398494 -0.163886,0.721098 -0.338698,1.387568 -0.174812,0.655544 -0.338698,1.212756 -0.15296,0.546287 -0.262217,0.906836 -0.196663,0.633693 -0.415178,1.311088 -0.207589,0.66647 -0.469807,1.40942 -0.251291,0.732024 -0.557212,1.562379 -0.294995,0.81943 -0.66647,1.759043 -0.163886,0.426104 -0.3824,0.852207 -0.207589,0.426104 -0.480733,0.775732 -0.273143,0.33869 -0.622766,0.55721 -0.338698,0.20759 -0.764802,0.20759 -0.251291,0 -0.524435,-0.0765 -0.262217,-0.0656 -0.447955,-0.28407 -0.89591,-1.037947 -1.595157,-2.349035 -0.699247,-1.322014 -1.256459,-2.753285 -0.546287,-1.442196 -0.97239,-2.906244 -0.426104,-1.474974 -0.775727,-2.818839 l -0.06555,-0.251292 q -0.0437,-0.152961 -0.0874,-0.305921 -0.03278,-0.163886 -0.07648,-0.294995 -0.03278,-0.131108 -0.08741,-0.207589 -0.0437,-0.0874 -0.109258,-0.0874 -0.06555,0 -0.163886,0.240366 -0.09833,0.240366 -0.196663,0.546286 -0.09833,0.294995 -0.185737,0.579064 -0.07648,0.284069 -0.09833,0.360549 -0.07648,0.284069 -0.22944,0.81943 -0.152961,0.524435 -0.349624,1.190905 -0.185737,0.66647 -0.415178,1.40942 -0.218514,0.742949 -0.426103,1.442196 -0.207589,0.688322 -0.393327,1.278311 -0.185737,0.58999 -0.30592,0.950539 -0.09833,0.284069 -0.240366,0.732024 -0.142035,0.447955 -0.284069,0.906836 -0.142035,0.447955 -0.262218,0.81943 -0.120183,0.371479 -0.15296,0.491659 -0.131109,0.41518 -0.393326,0.62277 -0.251292,0.21851 -0.51351,0.21851 -0.163886,0 -0.327772,-0.12018 -0.163886,-0.10926 -0.294995,-0.27315 -0.120183,-0.16388 -0.207589,-0.34962 -0.07648,-0.19666 -0.07648,-0.34962 0,-0.08741 0.05463,-0.273147 0.05463,-0.196663 0.174812,-0.655544 l 0.284069,-1.12535 z m 3.58364,-2.775136 z m 10.608887,11.810717 q 0.163886,-0.66647 0.502583,-1.409419 0.349624,-0.753876 0.906836,-1.518677 0.557213,-0.764802 1.33294,-1.496826 0.786652,-0.732024 1.813671,-1.365716 0.163886,-0.09833 0.502584,-0.207589 0.338698,-0.120183 0.699247,-0.142035 0.426103,-0.45888 1.147202,-0.45888 0.852207,0 1.431271,0.437029 0.589989,0.426103 0.97239,1.169053 0.120183,0.240366 0.218515,0.469807 0.109257,0.22944 0.174811,0.491658 0.07648,0.251292 0.120183,0.546286 0.0437,0.294995 0.0437,0.66647 0,0.863133 -0.273143,1.759043 -0.273143,0.89591 -0.775727,1.748117 -0.502584,0.852207 -1.223682,1.63886 -0.710173,0.775727 -1.584231,1.398491 -0.58999,0.42611 -1.311088,0.65555 -0.710173,0.24036 -1.595157,0.24036 -0.841282,0 -1.464048,-0.22944 -0.611841,-0.21851 -1.027019,-0.63369 -0.404252,-0.415178 -0.611841,-0.994242 -0.196663,-0.579063 -0.196663,-1.289236 0,-0.688321 0.196663,-1.474974 z m 1.813671,0.142035 q -0.06555,0.251291 -0.09833,0.480732 -0.02185,0.218514 -0.02185,0.426103 0,0.36055 0.08741,0.677396 0.09833,0.30592 0.305921,0.535361 0.207589,0.218514 0.513509,0.349623 0.316846,0.120183 0.764801,0.120183 0.830356,0 1.540529,-0.415178 0.721098,-0.426103 1.27831,-1.059796 0.557213,-0.633692 0.928688,-1.354791 0.3824,-0.732024 0.535361,-1.343865 0.09833,-0.3824 0.163886,-0.721098 0.07648,-0.338698 0.07648,-0.622767 0,-0.284069 -0.109258,-0.524435 -0.09833,-0.251292 -0.262217,-0.557212 -0.09833,-0.185738 -0.196663,-0.382401 -0.09833,-0.207589 -0.174812,-0.404252 -0.08741,0.15296 -0.185738,0.273143 -0.09833,0.109258 -0.294994,0.207589 -0.196664,0.08741 -0.535361,0.163886 -0.338698,0.07648 -0.884985,0.131109 -0.360549,0.120183 -0.732024,0.371475 -0.371475,0.251292 -0.732024,0.589989 -0.349623,0.338698 -0.677395,0.732025 -0.316846,0.393326 -0.579064,0.808504 -0.251292,0.404252 -0.447955,0.797578 -0.185737,0.393327 -0.262218,0.721099 z m 11.810716,-5.681381 q 0.0437,-0.174812 0.120183,-0.294995 0.08741,-0.131109 0.174812,-0.207589 0.09833,-0.07648 0.174812,-0.109257 0.07648,-0.03278 0.120183,-0.03278 0.120183,0 0.284069,0.03278 0.163886,0.02185 0.316846,0.0437 0.174812,0.03278 0.338698,0.06555 0.284069,0.01093 0.404252,0.22944 0.131109,0.218515 0.131109,0.524435 0,0.240367 -0.06556,0.447956 -0.371475,1.365716 -0.677395,2.381809 -0.305921,1.005168 -0.524435,1.71534 -0.207589,0.710173 -0.327772,1.158128 -0.109258,0.447955 -0.109258,0.677395 0,0.229441 0.05463,0.51351 0.06555,0.284069 0.185737,0.535361 0.120183,0.240366 0.305921,0.404252 0.185737,0.163886 0.447955,0.163886 0.458881,0 0.928687,-0.284069 0.469807,-0.284069 0.89591,-0.688321 0.426104,-0.415178 0.764802,-0.874059 0.349623,-0.469807 0.568138,-0.830356 l 0.284069,-0.491658 q 0.262217,-0.45888 0.480732,-1.04887 0.22944,-0.600915 0.393326,-1.201831 0.174812,-0.600915 0.294995,-1.12535 0.120183,-0.535361 0.185738,-0.852207 l 0.284069,-1.453123 q 0.0874,-0.415177 0.262217,-0.568138 0.185738,-0.163886 0.611841,-0.163886 0.273144,0 0.491658,0.06556 0.218515,0.05463 0.371475,0.207589 0.15296,0.15296 0.22944,0.415177 0.07648,0.251292 0.07648,0.655544 0,0.469807 -0.152961,1.158128 -0.142034,0.677395 -0.316846,1.365717 -0.09833,0.404252 -0.207589,0.863132 -0.09833,0.447956 -0.185737,0.906836 -0.07648,0.447955 -0.131109,0.863133 -0.0437,0.404252 -0.0437,0.732024 0,0.557213 0.03278,1.114425 0.0437,0.557212 0.0437,1.179979 0,0.284069 -0.02185,0.502584 -0.01093,0.218514 -0.0437,0.327775 -0.120183,0.4261 -0.316847,0.63369 -0.185737,0.20759 -0.644618,0.20759 -0.316846,0 -0.502583,-0.0765 -0.185738,-0.0656 -0.294995,-0.18574 -0.09833,-0.12018 -0.131109,-0.26222 -0.03278,-0.15296 -0.0437,-0.30592 l -0.120183,-2.064961 -0.09833,0.03278 q -0.360549,0.458881 -0.786652,1.027019 -0.426104,0.568138 -0.939613,1.059795 -0.51351,0.49166 -1.125351,0.81943 -0.600915,0.3387 -1.311088,0.3387 -0.142034,0 -0.371475,-0.0765 -0.218514,-0.0656 -0.45888,-0.17481 -0.240366,-0.10926 -0.458881,-0.25129 -0.218515,-0.13111 -0.349624,-0.2513 -0.600915,-0.557209 -0.852207,-1.256456 -0.251292,-0.699247 -0.251292,-1.420345 0,-0.404252 0.06556,-0.808504 0.06555,-0.404253 0.15296,-0.775727 0.08741,-0.382401 0.185738,-0.710173 0.109257,-0.338698 0.174811,-0.600915 0.207589,-0.81943 0.371475,-1.442197 0.163886,-0.622767 0.284069,-1.092573 0.131109,-0.469807 0.218515,-0.797579 0.08741,-0.338698 0.15296,-0.589989 z m 10.761847,7.790047 q 0.08741,0 0.152961,0.02185 0.07648,0.02185 0.163886,0.05463 0.08741,0.02185 0.196663,0.0437 0.109257,0.02185 0.284069,0.02185 0.513509,0 1.136276,-0.109257 0.633693,-0.109257 1.190905,-0.284069 0.557212,-0.174812 0.950539,-0.393326 0.404252,-0.229441 0.45888,-0.469807 0.03278,-0.131109 0.03278,-0.22944 0,-0.185738 -0.185738,-0.349624 -0.174811,-0.174811 -0.447955,-0.327772 -0.273143,-0.15296 -0.589989,-0.284069 -0.316847,-0.131108 -0.58999,-0.240366 l -0.371475,-0.15296 q -0.284069,-0.109257 -0.557212,-0.262218 -0.273143,-0.163886 -0.51351,-0.371474 -0.22944,-0.207589 -0.415177,-0.480733 -0.174812,-0.284069 -0.262218,-0.644618 -0.0437,-0.15296 -0.07648,-0.30592 -0.02185,-0.152961 -0.02185,-0.327772 0,-0.284069 0.185738,-0.644619 0.196663,-0.371475 0.513509,-0.732024 0.327772,-0.360549 0.732024,-0.688321 0.415178,-0.327772 0.863133,-0.546286 0.327772,-0.229441 0.633693,-0.415178 0.30592,-0.185738 0.611841,-0.316847 0.316846,-0.131108 0.633692,-0.207588 0.327772,-0.07648 0.688321,-0.07648 0.327772,0 0.710173,0.03278 0.382401,0.03278 0.699247,0.15296 0.316846,0.120183 0.524435,0.360549 0.218515,0.22944 0.218515,0.622767 0,0.120183 -0.03278,0.316846 -0.03278,0.196663 -0.109257,0.393326 -0.07648,0.196664 -0.185737,0.338698 -0.109258,0.142035 -0.262218,0.142035 -0.251292,0 -0.415178,-0.09833 -0.163886,-0.09833 -0.294994,-0.207589 -0.131109,-0.120183 -0.273144,-0.218515 -0.142034,-0.09833 -0.349623,-0.09833 -0.251292,0 -0.58999,0.09833 -0.327772,0.08741 -0.677395,0.251292 -0.349624,0.152961 -0.688321,0.360549 -0.327772,0.207589 -0.600916,0.426104 -0.262217,0.218515 -0.426103,0.437029 -0.163886,0.207589 -0.163886,0.382401 0,0.185737 0.120183,0.30592 0.120183,0.120184 0.30592,0.207589 0.240366,0.131109 0.546287,0.262218 0.316846,0.131109 0.633692,0.262218 0.316847,0.131108 0.611841,0.262217 0.305921,0.131109 0.524436,0.240366 0.294994,0.152961 0.524435,0.305921 0.240366,0.142034 0.404252,0.316846 0.163886,0.174812 0.251292,0.393326 0.08741,0.218515 0.08741,0.51351 0,0.142034 -0.02185,0.284069 -0.02185,0.142034 -0.06555,0.327772 -0.03278,0.163886 -0.120183,0.3824 -0.07648,0.218515 -0.174812,0.43703 -0.08741,0.207589 -0.185737,0.3824 -0.09833,0.163886 -0.163886,0.218515 -0.426104,0.393326 -1.005168,0.74295 -0.579064,0.338698 -1.212756,0.600911 -0.622767,0.2513 -1.256459,0.40426 -0.622767,0.15296 -1.147202,0.15296 -0.262218,0 -0.579064,-0.0983 -0.316846,-0.10925 -0.58999,-0.27314 -0.262217,-0.17481 -0.447955,-0.393325 -0.174811,-0.218514 -0.174811,-0.437029 0,-0.109257 0.06555,-0.240366 0.06555,-0.142035 0.163886,-0.251292 0.09833,-0.120183 0.207589,-0.196663 0.120183,-0.08741 0.218514,-0.08741 z m 20.179825,0 q 0.0874,0 0.15296,0.02185 0.0765,0.02185 0.16389,0.05463 0.0874,0.02185 0.19666,0.0437 0.10926,0.02185 0.28407,0.02185 0.51351,0 1.13628,-0.109257 0.63369,-0.109257 1.1909,-0.284069 0.55722,-0.174812 0.95054,-0.393326 0.40425,-0.229441 0.45888,-0.469807 0.0328,-0.131109 0.0328,-0.22944 0,-0.185738 -0.18574,-0.349624 -0.17481,-0.174811 -0.44795,-0.327772 -0.27315,-0.15296 -0.58999,-0.284069 -0.31685,-0.131108 -0.58999,-0.240366 l -0.37148,-0.15296 q -0.28407,-0.109257 -0.55721,-0.262218 -0.27314,-0.163886 -0.51351,-0.371474 -0.22944,-0.207589 -0.41518,-0.480733 -0.17481,-0.284069 -0.26221,-0.644618 -0.0437,-0.15296 -0.0765,-0.30592 -0.0219,-0.152961 -0.0219,-0.327772 0,-0.284069 0.18573,-0.644619 0.19667,-0.371475 0.51351,-0.732024 0.32777,-0.360549 0.73203,-0.688321 0.41517,-0.327772 0.86313,-0.546286 0.32777,-0.229441 0.63369,-0.415178 0.30592,-0.185738 0.61184,-0.316847 0.31685,-0.131108 0.63369,-0.207588 0.32778,-0.07648 0.68833,-0.07648 0.32777,0 0.71017,0.03278 0.3824,0.03278 0.69925,0.15296 0.31684,0.120183 0.52443,0.360549 0.21852,0.22944 0.21852,0.622767 0,0.120183 -0.0328,0.316846 -0.0328,0.196663 -0.10926,0.393326 -0.0765,0.196664 -0.18574,0.338698 -0.10925,0.142035 -0.26221,0.142035 -0.2513,0 -0.41518,-0.09833 -0.16389,-0.09833 -0.295,-0.207589 -0.13111,-0.120183 -0.27314,-0.218515 -0.14203,-0.09833 -0.34962,-0.09833 -0.2513,0 -0.58999,0.09833 -0.32778,0.08741 -0.6774,0.251292 -0.34962,0.152961 -0.68832,0.360549 -0.32777,0.207589 -0.60092,0.426104 -0.26221,0.218515 -0.4261,0.437029 -0.16388,0.207589 -0.16388,0.382401 0,0.185737 0.12018,0.30592 0.12018,0.120184 0.30592,0.207589 0.24037,0.131109 0.54629,0.262218 0.31684,0.131109 0.63369,0.262218 0.31684,0.131108 0.61184,0.262217 0.30592,0.131109 0.52443,0.240366 0.295,0.152961 0.52444,0.305921 0.24037,0.142034 0.40425,0.316846 0.16389,0.174812 0.25129,0.393326 0.0874,0.218515 0.0874,0.51351 0,0.142034 -0.0219,0.284069 -0.0219,0.142034 -0.0656,0.327772 -0.0328,0.163886 -0.12018,0.3824 -0.0765,0.218515 -0.17481,0.43703 -0.0874,0.207589 -0.18574,0.3824 -0.0983,0.163886 -0.16388,0.218515 -0.42611,0.393326 -1.00517,0.74295 -0.57907,0.338698 -1.21276,0.600911 -0.62277,0.2513 -1.25646,0.40426 -0.62276,0.15296 -1.1472,0.15296 -0.26222,0 -0.57906,-0.0983 -0.31685,-0.10925 -0.58999,-0.27314 -0.26222,-0.17481 -0.44796,-0.393325 -0.17481,-0.218514 -0.17481,-0.437029 0,-0.109257 0.0656,-0.240366 0.0656,-0.142035 0.16389,-0.251292 0.0983,-0.120183 0.20759,-0.196663 0.12018,-0.08741 0.21851,-0.08741 z m 9.10114,-2.250701 q 0.16388,-0.66647 0.50258,-1.409419 0.34962,-0.753876 0.90684,-1.518677 0.55721,-0.764802 1.33294,-1.496826 0.78665,-0.732024 1.81367,-1.365716 0.16388,-0.09833 0.50258,-0.207589 0.3387,-0.120183 0.69925,-0.142035 0.4261,-0.45888 1.1472,-0.45888 0.85221,0 1.43127,0.437029 0.58999,0.426103 0.97239,1.169053 0.12018,0.240366 0.21852,0.469807 0.10925,0.22944 0.17481,0.491658 0.0765,0.251292 0.12018,0.546286 0.0437,0.294995 0.0437,0.66647 0,0.863133 -0.27314,1.759043 -0.27314,0.89591 -0.77573,1.748117 -0.50258,0.852207 -1.22368,1.63886 -0.71017,0.775727 -1.58423,1.398491 -0.58999,0.42611 -1.31109,0.65555 -0.71017,0.24036 -1.59515,0.24036 -0.84129,0 -1.46405,-0.22944 -0.61184,-0.21851 -1.02702,-0.63369 -0.40425,-0.415178 -0.61184,-0.994242 -0.19667,-0.579063 -0.19667,-1.289236 0,-0.688321 0.19667,-1.474974 z m 1.81367,0.142035 q -0.0656,0.251291 -0.0983,0.480732 -0.0219,0.218514 -0.0219,0.426103 0,0.36055 0.0874,0.677396 0.0983,0.30592 0.30592,0.535361 0.20759,0.218514 0.51351,0.349623 0.31685,0.120183 0.7648,0.120183 0.83036,0 1.54053,-0.415178 0.7211,-0.426103 1.27831,-1.059796 0.55721,-0.633692 0.92869,-1.354791 0.3824,-0.732024 0.53536,-1.343865 0.0983,-0.3824 0.16389,-0.721098 0.0765,-0.338698 0.0765,-0.622767 0,-0.284069 -0.10926,-0.524435 -0.0983,-0.251292 -0.26222,-0.557212 -0.0983,-0.185738 -0.19666,-0.382401 -0.0983,-0.207589 -0.17481,-0.404252 -0.0874,0.15296 -0.18574,0.273143 -0.0983,0.109258 -0.295,0.207589 -0.19666,0.08741 -0.53536,0.163886 -0.33869,0.07648 -0.88498,0.131109 -0.36055,0.120183 -0.73203,0.371475 -0.37147,0.251292 -0.73202,0.589989 -0.34962,0.338698 -0.67739,0.732025 -0.31685,0.393326 -0.57907,0.808504 -0.25129,0.404252 -0.44795,0.797578 -0.18574,0.393327 -0.26222,0.721099 z m 9.92056,3.321422 q 0.32777,-1.27831 0.63369,-2.381809 0.30592,-1.103499 0.58999,-2.108667 0.295,-1.016093 0.56814,-1.966632 0.27314,-0.950538 0.52444,-1.933854 0.0983,-0.382401 0.10925,-0.732024 0.0219,-0.36055 0.10926,-0.74295 0.0437,-0.131109 0.15296,-0.229441 0.12018,-0.109257 0.26222,-0.185737 0.14203,-0.07648 0.29499,-0.120183 0.16389,-0.0437 0.30592,-0.0437 0.30592,0 0.50259,0.07648 0.20759,0.06555 0.32777,0.185738 0.13111,0.120183 0.17481,0.294994 0.0546,0.163886 0.0546,0.371475 0,0.371475 -0.12018,0.753876 -0.12019,0.371475 -0.295,0.81943 0.51351,-0.404252 1.04887,-0.764802 0.54629,-0.360549 1.11443,-0.633692 0.57906,-0.273143 1.17998,-0.437029 0.60091,-0.163886 1.24553,-0.163886 0.29499,0 0.58999,0.09833 0.29499,0.08741 0.52443,0.284069 0.24037,0.196663 0.39333,0.51351 0.16389,0.316846 0.18574,0.775727 0.4698,-0.316847 0.97239,-0.633693 0.50258,-0.327772 1.01609,-0.579064 0.52444,-0.262217 1.03795,-0.415177 0.52443,-0.163886 1.01609,-0.163886 0.73202,0 1.20183,0.196663 0.48073,0.185737 0.75388,0.513509 0.28406,0.316846 0.39332,0.74295 0.12018,0.426104 0.12018,0.906836 0,0.524435 -0.0983,1.081647 -0.0983,0.557213 -0.21851,1.059796 -0.31685,1.267385 -0.71017,2.403662 -0.39333,1.12535 -0.85221,2.283478 -0.10926,0.273143 -0.22944,0.579063 -0.12018,0.30592 -0.28407,0.56814 -0.15296,0.25129 -0.37148,0.4261 -0.20758,0.16389 -0.49165,0.16389 -0.64462,0 -0.88499,-0.21852 -0.24036,-0.21851 -0.24036,-0.62276 0,-0.109261 0.0109,-0.251295 0.0109,-0.142035 0.0546,-0.273143 0.0437,-0.163886 0.19666,-0.469807 0.15296,-0.316846 0.32778,-0.677395 0.18573,-0.36055 0.36054,-0.721099 0.17482,-0.371475 0.26222,-0.644618 0.14204,-0.469806 0.32777,-1.081647 0.19667,-0.622767 0.37148,-1.245534 0.17481,-0.633692 0.28407,-1.190905 0.12018,-0.568138 0.12018,-0.917761 0,-0.163886 -0.0328,-0.327772 -0.0328,-0.163886 -0.12018,-0.284069 -0.0765,-0.120183 -0.22944,-0.196664 -0.14203,-0.07648 -0.37147,-0.07648 -0.32778,0 -0.78666,0.185738 -0.44795,0.185737 -0.93961,0.491658 -0.48073,0.294995 -0.93961,0.677395 -0.45888,0.371475 -0.78666,0.74295 -0.22944,0.262218 -0.43702,0.426104 -0.20759,0.163886 -0.41518,0.251291 -0.0219,0.0437 -0.10926,0.294995 -0.0874,0.240366 -0.20759,0.58999 -0.12018,0.338697 -0.25129,0.74295 -0.13111,0.393326 -0.25129,0.742949 -0.10926,0.338698 -0.18574,0.579064 -0.0765,0.229441 -0.0765,0.251292 -0.0765,0.305921 -0.13111,0.633693 -0.0546,0.316846 -0.0983,0.611841 -0.0437,0.294994 -0.0874,0.633692 -0.0328,0.327772 -0.15296,0.622767 -0.10925,0.28407 -0.34962,0.46981 -0.22944,0.18573 -0.65554,0.18573 -0.21852,0 -0.40426,-0.10925 -0.17481,-0.10926 -0.30592,-0.27315 -0.13111,-0.17481 -0.20759,-0.3824 -0.0765,-0.218512 -0.0874,-0.437027 0.25129,-0.983316 0.49166,-1.769969 0.24036,-0.786652 0.48073,-1.507751 0.24036,-0.721098 0.45888,-1.442196 0.22944,-0.732024 0.44795,-1.606083 0.0546,-0.207589 0.0874,-0.404252 0.0328,-0.207589 0.0328,-0.360549 0,-0.262218 -0.10926,-0.426104 -0.10926,-0.174812 -0.3824,-0.174812 -0.44796,0 -0.89591,0.185738 -0.43703,0.174812 -0.95054,0.557212 -0.51351,0.382401 -1.1472,0.97239 -0.62277,0.58999 -1.4422,1.40942 -0.0874,0.163886 -0.22944,0.611841 -0.14203,0.447955 -0.29499,0.950539 -0.14204,0.502583 -0.26222,0.939613 -0.12018,0.426103 -0.15296,0.568138 -0.12018,0.458881 -0.16389,0.775727 -0.0437,0.30592 -0.0765,0.557212 -0.0218,0.131109 -0.0655,0.437029 -0.0437,0.294994 -0.16389,0.600914 -0.10925,0.30592 -0.31684,0.53536 -0.20759,0.24037 -0.54629,0.24037 -0.50258,0 -0.83036,-0.27314 -0.31684,-0.27315 -0.31684,-0.68833 0,-0.0765 0.0109,-0.14203 0.0109,-0.0656 0.0328,-0.142035 z m 19.21837,0 q 0.32777,-1.27831 0.63369,-2.381809 0.30592,-1.103499 0.58999,-2.108667 0.295,-1.016093 0.56814,-1.966632 0.27314,-0.950538 0.52443,-1.933854 0.0983,-0.382401 0.10926,-0.732024 0.0219,-0.36055 0.10926,-0.74295 0.0437,-0.131109 0.15296,-0.229441 0.12018,-0.109257 0.26222,-0.185737 0.14203,-0.07648 0.29499,-0.120183 0.16389,-0.0437 0.30592,-0.0437 0.30592,0 0.50259,0.07648 0.20758,0.06555 0.32777,0.185738 0.13111,0.120183 0.17481,0.294994 0.0546,0.163886 0.0546,0.371475 0,0.371475 -0.12018,0.753876 -0.12019,0.371475 -0.295,0.81943 0.51351,-0.404252 1.04887,-0.764802 0.54629,-0.360549 1.11443,-0.633692 0.57906,-0.273143 1.17997,-0.437029 0.60092,-0.163886 1.24554,-0.163886 0.29499,0 0.58999,0.09833 0.29499,0.08741 0.52443,0.284069 0.24037,0.196663 0.39333,0.51351 0.16389,0.316846 0.18574,0.775727 0.4698,-0.316847 0.97239,-0.633693 0.50258,-0.327772 1.01609,-0.579064 0.52444,-0.262217 1.03794,-0.415177 0.52444,-0.163886 1.0161,-0.163886 0.73202,0 1.20183,0.196663 0.48073,0.185737 0.75387,0.513509 0.28407,0.316846 0.39333,0.74295 0.12018,0.426104 0.12018,0.906836 0,0.524435 -0.0983,1.081647 -0.0983,0.557213 -0.21851,1.059796 -0.31685,1.267385 -0.71018,2.403662 -0.39332,1.12535 -0.8522,2.283478 -0.10926,0.273143 -0.22944,0.579063 -0.12019,0.30592 -0.28407,0.56814 -0.15296,0.25129 -0.37148,0.4261 -0.20759,0.16389 -0.49165,0.16389 -0.64462,0 -0.88499,-0.21852 -0.24037,-0.21851 -0.24037,-0.62276 0,-0.109261 0.0109,-0.251295 0.0109,-0.142035 0.0546,-0.273143 0.0437,-0.163886 0.19666,-0.469807 0.15296,-0.316846 0.32777,-0.677395 0.18574,-0.36055 0.36055,-0.721099 0.17482,-0.371475 0.26222,-0.644618 0.14204,-0.469806 0.32777,-1.081647 0.19667,-0.622767 0.37148,-1.245534 0.17481,-0.633692 0.28407,-1.190905 0.12018,-0.568138 0.12018,-0.917761 0,-0.163886 -0.0328,-0.327772 -0.0328,-0.163886 -0.12018,-0.284069 -0.0765,-0.120183 -0.22944,-0.196664 -0.14204,-0.07648 -0.37148,-0.07648 -0.32777,0 -0.78665,0.185738 -0.44795,0.185737 -0.93961,0.491658 -0.48073,0.294995 -0.93961,0.677395 -0.45889,0.371475 -0.78666,0.74295 -0.22944,0.262218 -0.43703,0.426104 -0.20759,0.163886 -0.41517,0.251291 -0.0219,0.0437 -0.10926,0.294995 -0.0874,0.240366 -0.20759,0.58999 -0.12018,0.338697 -0.25129,0.74295 -0.13111,0.393326 -0.25129,0.742949 -0.10926,0.338698 -0.18574,0.579064 -0.0765,0.229441 -0.0765,0.251292 -0.0765,0.305921 -0.13111,0.633693 -0.0546,0.316846 -0.0983,0.611841 -0.0437,0.294994 -0.0874,0.633692 -0.0328,0.327772 -0.15296,0.622767 -0.10926,0.28407 -0.34962,0.46981 -0.22944,0.18573 -0.65555,0.18573 -0.21851,0 -0.40425,-0.10925 -0.17481,-0.10926 -0.30592,-0.27315 -0.13111,-0.17481 -0.20759,-0.3824 -0.0765,-0.218512 -0.0874,-0.437027 0.25129,-0.983316 0.49165,-1.769969 0.24037,-0.786652 0.48074,-1.507751 0.24036,-0.721098 0.45888,-1.442196 0.22944,-0.732024 0.44795,-1.606083 0.0546,-0.207589 0.0874,-0.404252 0.0328,-0.207589 0.0328,-0.360549 0,-0.262218 -0.10926,-0.426104 -0.10926,-0.174812 -0.3824,-0.174812 -0.44796,0 -0.89591,0.185738 -0.43703,0.174812 -0.95054,0.557212 -0.51351,0.382401 -1.1472,0.97239 -0.62277,0.58999 -1.4422,1.40942 -0.0874,0.163886 -0.22944,0.611841 -0.14203,0.447955 -0.29499,0.950539 -0.14204,0.502583 -0.26222,0.939613 -0.12019,0.426103 -0.15296,0.568138 -0.12019,0.458881 -0.16389,0.775727 -0.0437,0.30592 -0.0765,0.557212 -0.0219,0.131109 -0.0656,0.437029 -0.0437,0.294994 -0.16389,0.600914 -0.10926,0.30592 -0.31685,0.53536 -0.20758,0.24037 -0.54628,0.24037 -0.50259,0 -0.83036,-0.27314 -0.31684,-0.27315 -0.31684,-0.68833 0,-0.0765 0.0109,-0.14203 0.0109,-0.0656 0.0328,-0.142035 z m 19.05447,-3.496234 q 0,-0.469807 0.2513,-0.797579 0.25129,-0.327772 0.66647,-0.437029 0.12018,-0.240366 0.37147,-0.644618 0.25129,-0.415178 0.62277,-0.89591 0.37147,-0.480732 0.84128,-0.961465 0.48073,-0.491658 1.04887,-0.884984 0.57906,-0.404252 1.23461,-0.655544 0.66647,-0.251292 1.40942,-0.251292 0.63369,0 1.1035,0.15296 0.4698,0.152961 0.77572,0.426104 0.30592,0.273143 0.45888,0.655544 0.15296,0.371475 0.15296,0.808504 0,0.371475 -0.0983,0.710173 -0.15296,0.611841 -0.56814,1.070722 -0.41517,0.45888 -0.98331,0.808504 -0.55721,0.338697 -1.22368,0.568138 -0.65555,0.22944 -1.32202,0.382401 -0.65554,0.15296 -1.26738,0.240366 -0.61184,0.07648 -1.0598,0.120183 -0.0983,0.196663 -0.17481,0.502583 -0.0656,0.294995 -0.0656,0.579064 0,0.633693 0.50259,0.983316 0.50258,0.349624 1.38757,0.349624 0.51351,0 0.98331,-0.109258 0.46981,-0.120183 0.88499,-0.294995 0.4261,-0.185737 0.79758,-0.393326 0.37147,-0.218515 0.67739,-0.426103 0.39333,-0.262218 0.74295,-0.43703 0.36055,-0.185737 0.63369,-0.185737 0.27315,0 0.34963,0.142034 0.0765,0.131109 0.0765,0.284069 0,0.08741 -0.0109,0.174812 0,0.07648 -0.0109,0.131109 -0.0546,0.284069 -0.21852,0.568138 -0.16389,0.284069 -0.41518,0.491658 -1.13627,0.895913 -2.3381,1.278313 -1.19091,0.3824 -2.5457,0.3824 -0.26222,0 -0.62277,-0.0328 -0.34962,-0.0328 -0.73202,-0.13111 -0.3824,-0.0983 -0.75388,-0.28407 -0.37147,-0.18573 -0.66647,-0.491655 -0.28406,-0.30592 -0.4698,-0.753875 -0.17481,-0.447955 -0.17481,-1.081648 0,-0.513509 0.14203,-1.147202 -0.14203,-0.02185 -0.27314,-0.142034 -0.12019,-0.131109 -0.12019,-0.371475 z m 6.83951,-3.026428 q 0.0219,-0.05463 0.0219,-0.09833 0,-0.0437 0,-0.09833 0,-0.294995 -0.21851,-0.43703 -0.21852,-0.15296 -0.52444,-0.15296 -0.48073,0 -0.95053,0.251292 -0.45889,0.251292 -0.87406,0.633693 -0.40426,0.371474 -0.7211,0.808504 -0.31685,0.426103 -0.49166,0.775727 0.78665,-0.06555 1.4422,-0.207589 0.65554,-0.15296 1.13627,-0.371475 0.49166,-0.22944 0.78666,-0.502584 0.30592,-0.284069 0.39332,-0.600915 z m -1.26738,-2.960874 z m 5.8999,8.27078 q 0.0874,0 0.15296,0.02185 0.0765,0.02185 0.16388,0.05463 0.0874,0.02185 0.19667,0.0437 0.10926,0.02185 0.28407,0.02185 0.51351,0 1.13627,-0.109257 0.6337,-0.109257 1.19091,-0.284069 0.55721,-0.174812 0.95054,-0.393326 0.40425,-0.229441 0.45888,-0.469807 0.0328,-0.131109 0.0328,-0.22944 0,-0.185738 -0.18573,-0.349624 -0.17481,-0.174811 -0.44796,-0.327772 -0.27314,-0.15296 -0.58999,-0.284069 -0.31684,-0.131108 -0.58999,-0.240366 l -0.37147,-0.15296 q -0.28407,-0.109257 -0.55721,-0.262218 -0.27315,-0.163886 -0.51351,-0.371474 -0.22944,-0.207589 -0.41518,-0.480733 -0.17481,-0.284069 -0.26222,-0.644618 -0.0437,-0.15296 -0.0765,-0.30592 -0.0219,-0.152961 -0.0219,-0.327772 0,-0.284069 0.18574,-0.644619 0.19666,-0.371475 0.51351,-0.732024 0.32777,-0.360549 0.73202,-0.688321 0.41518,-0.327772 0.86313,-0.546286 0.32778,-0.229441 0.6337,-0.415178 0.30592,-0.185738 0.61184,-0.316847 0.31684,-0.131108 0.63369,-0.207588 0.32777,-0.07648 0.68832,-0.07648 0.32777,0 0.71017,0.03278 0.3824,0.03278 0.69925,0.15296 0.31685,0.120183 0.52444,0.360549 0.21851,0.22944 0.21851,0.622767 0,0.120183 -0.0328,0.316846 -0.0328,0.196663 -0.10925,0.393326 -0.0765,0.196664 -0.18574,0.338698 -0.10926,0.142035 -0.26222,0.142035 -0.25129,0 -0.41518,-0.09833 -0.16388,-0.09833 -0.29499,-0.207589 -0.13111,-0.120183 -0.27315,-0.218515 -0.14203,-0.09833 -0.34962,-0.09833 -0.25129,0 -0.58999,0.09833 -0.32777,0.08741 -0.67739,0.251292 -0.34963,0.152961 -0.68833,0.360549 -0.32777,0.207589 -0.60091,0.426104 -0.26222,0.218515 -0.4261,0.437029 -0.16389,0.207589 -0.16389,0.382401 0,0.185737 0.12018,0.30592 0.12019,0.120184 0.30592,0.207589 0.24037,0.131109 0.54629,0.262218 0.31685,0.131109 0.63369,0.262218 0.31685,0.131108 0.61184,0.262217 0.30592,0.131109 0.52444,0.240366 0.29499,0.152961 0.52443,0.305921 0.24037,0.142034 0.40426,0.316846 0.16388,0.174812 0.25129,0.393326 0.0874,0.218515 0.0874,0.51351 0,0.142034 -0.0219,0.284069 -0.0219,0.142034 -0.0656,0.327772 -0.0328,0.163886 -0.12019,0.3824 -0.0765,0.218515 -0.17481,0.43703 -0.0874,0.207589 -0.18573,0.3824 -0.0983,0.163886 -0.16389,0.218515 -0.4261,0.393326 -1.00517,0.74295 -0.57906,0.338698 -1.21275,0.600911 -0.62277,0.2513 -1.25646,0.40426 -0.62277,0.15296 -1.14721,0.15296 -0.26221,0 -0.57906,-0.0983 -0.31685,-0.10925 -0.58999,-0.27314 -0.26222,-0.17481 -0.44795,-0.393325 -0.17482,-0.218514 -0.17482,-0.437029 0,-0.109257 0.0656,-0.240366 0.0655,-0.142035 0.16389,-0.251292 0.0983,-0.120183 0.20758,-0.196663 0.12019,-0.08741 0.21852,-0.08741 z"
       id="text31"
       style="-inkscape-font-specification:'MV Boli';fill:#ffffff;stroke-width:0.78129"
       aria-label="Nous sommes" />
    <path
       id="path20"
       d="m 0,0 h -49.882 c -0.866,0 -0.866,-1.342 0,-1.342 H 0 C 0.865,-1.342 0.865,0 0,0"
       style="fill:#ffffff;fill-opacity:1;fill-rule:nonzero;stroke:none"
       transform="matrix(0.77800601,0,0,-0.77800601,38.836446,94.140858)"
       clip-path="url(#clipPath21)" />
    <path
       id="path22"
       d="m 0,0 h -49.881 c -0.866,0 -0.866,-1.342 0,-1.342 H 0 C 0.865,-1.342 0.865,0 0,0"
       style="fill:#ffffff;fill-opacity:1;fill-rule:nonzero;stroke:none"
       transform="matrix(0.77800601,0,0,-0.77800601,227.36307,94.140858)"
       clip-path="url(#clipPath23)" />
    <path
       d="m 60.868188,134.91872 q 0,6.30101 -0.309886,8.93504 -0.284062,2.60821 -1.859315,4.77741 -1.54943,2.1692 -4.209284,3.33127 -2.659854,1.16208 -6.197719,1.16208 -3.357097,0 -6.042776,-1.0846 -2.659854,-1.11043 -4.286755,-3.30545 -1.626901,-2.19503 -1.936787,-4.77741 -0.309886,-2.58239 -0.309886,-9.03834 v -7.1532 q 0,-6.30102 0.284062,-8.90922 0.309886,-2.63403 1.859316,-4.80324 1.575253,-2.1692 4.235107,-3.33127 2.659855,-1.16207 6.197719,-1.16207 3.357098,0 6.016952,1.11042 2.685678,1.0846 4.312579,3.27963 1.626901,2.19502 1.936787,4.77741 0.309886,2.58238 0.309886,9.03834 z M 49.996357,121.18044 q 0,-2.91809 -0.33571,-3.71863 -0.309886,-0.82636 -1.317015,-0.82636 -0.852187,0 -1.317015,0.67142 -0.439005,0.64559 -0.439005,3.87357 v 19.52281 q 0,3.64116 0.284062,4.49335 0.309886,0.85219 1.394486,0.85219 1.110425,0 1.420311,-0.98131 0.309886,-0.9813 0.309886,-4.67411 z m 39.639576,-10.74271 v 27.94138 q 0,4.75158 -0.309886,6.68837 -0.309886,1.91096 -1.833492,3.95105 -1.523605,2.01426 -4.028517,3.07303 -2.479087,1.03296 -5.862009,1.03296 -3.744455,0 -6.6109,-1.23955 -2.866444,-1.23954 -4.286755,-3.22798 -1.420311,-1.98843 -1.678549,-4.18346 -0.258238,-2.22085 -0.258238,-9.29657 v -24.73923 h 10.871831 v 31.35013 q 0,2.73732 0.284063,3.51204 0.309885,0.74889 1.213719,0.74889 1.032954,0 1.317016,-0.82637 0.309886,-0.85218 0.309886,-3.97686 v -30.80783 z m 30.033107,0 -5.5263,41.80878 H 97.641318 l -6.27519,-41.80878 h 11.465782 q 1.98843,17.27614 2.84062,29.20675 0.85218,-12.05973 1.78184,-21.43378 l 0.74889,-7.77297 z m 1.85932,0 h 18.12833 v 8.36692 h -7.2565 v 7.92791 h 6.79167 v 7.95374 h -6.79167 v 9.19329 h 7.97956 v 8.36692 h -18.85139 z m 21.97608,0 h 7.6955 q 7.6955,0 10.407,0.59395 2.73733,0.59394 4.4417,3.04721 1.7302,2.42744 1.7302,7.77297 0,4.8807 -1.21372,6.55925 -1.21372,1.67855 -4.77741,2.01426 3.22798,0.80054 4.3384,2.14338 1.11043,1.34284 1.36867,2.47909 0.28406,1.11042 0.28406,6.17189 v 11.02678 h -10.09712 v -13.89322 q 0,-3.3571 -0.5423,-4.15764 -0.51647,-0.80054 -2.76315,-0.80054 v 18.8514 h -10.87183 z m 10.87183,7.1532 v 9.29658 q 1.83349,0 2.55656,-0.49066 0.74889,-0.51647 0.74889,-3.27962 v -2.29832 q 0,-1.98844 -0.72306,-2.60821 -0.69725,-0.61977 -2.58239,-0.61977 z m 39.51047,-7.1532 v 8.36692 h -6.45596 v 33.44186 h -10.87183 v -33.44186 h -6.43014 v -8.36692 z"
       id="text32"
       style="-inkscape-font-specification:Impact;fill:#ffffff;stroke-width:1.84665"
       aria-label="OUVERT" />
  </g>
</svg>
