<?xml version="1.0" encoding="UTF-8" standalone="no"?>
<!-- Created with Inkscape (http://www.inkscape.org/) -->

<svg
   width="240.42473mm"
   height="101.0042mm"
   viewBox="0 0 240.42473 101.0042"
   version="1.1"
   id="svg1"
   inkscape:version="1.3 (0e150ed6c4, 2023-07-21)"
   sodipodi:docname="open_pro_sign.svg"
   xmlns:inkscape="http://www.inkscape.org/namespaces/inkscape"
   xmlns:sodipodi="http://sodipodi.sourceforge.net/DTD/sodipodi-0.dtd"
   xmlns="http://www.w3.org/2000/svg"
   xmlns:svg="http://www.w3.org/2000/svg">
  <sodipodi:namedview
     id="namedview1"
     pagecolor="#ffffff"
     bordercolor="#000000"
     borderopacity="0.25"
     inkscape:showpageshadow="2"
     inkscape:pageopacity="0.0"
     inkscape:pagecheckerboard="0"
     inkscape:deskcolor="#d1d1d1"
     inkscape:document-units="mm"
     inkscape:zoom="1.0847363"
     inkscape:cx="-30.883082"
     inkscape:cy="300.07293"
     inkscape:window-width="1920"
     inkscape:window-height="1057"
     inkscape:window-x="-8"
     inkscape:window-y="-8"
     inkscape:window-maximized="1"
     inkscape:current-layer="layer1" />
  <defs
     id="defs1">
    <clipPath
       clipPathUnits="userSpaceOnUse"
       id="clipPath7">
      <path
         d="M 0,500 H 500 V 0 H 0 Z"
         transform="translate(-385.05271,-275.6235)"
         id="path7" />
    </clipPath>
    <clipPath
       clipPathUnits="userSpaceOnUse"
       id="clipPath16">
      <path
         d="M 0,500 H 500 V 0 H 0 Z"
         transform="translate(-252.68071,-381.24611)"
         id="path16" />
    </clipPath>
    <clipPath
       clipPathUnits="userSpaceOnUse"
       id="clipPath21">
      <path
         d="M 0,500 H 500 V 0 H 0 Z"
         transform="translate(-162.78711,-243.21581)"
         id="path21" />
    </clipPath>
    <clipPath
       clipPathUnits="userSpaceOnUse"
       id="clipPath23">
      <path
         d="M 0,500 H 500 V 0 H 0 Z"
         transform="translate(-371.43551,-243.21581)"
         id="path23" />
    </clipPath>
    <clipPath
       clipPathUnits="userSpaceOnUse"
       id="clipPath31">
      <path
         d="M 0,500 H 500 V 0 H 0 Z"
         transform="translate(-90.4966,-176.7305)"
         id="path31" />
    </clipPath>
  </defs>
  <g
     inkscape:label="Calque 1"
     inkscape:groupmode="layer"
     id="layer1"
     transform="translate(8.6565671,-67.659767)">
    <rect
       style="fill:#ff7f2a;fill-opacity:1;stroke-width:0.488977"
       id="rect31"
       width="239.45599"
       height="93.975189"
       x="-7.6878257"
       y="67.659767"
       ry="17.168541" />
    <path
       id="path20"
       d="m 0,0 h -49.882 c -0.866,0 -0.866,-1.342 0,-1.342 H 0 C 0.865,-1.342 0.865,0 0,0"
       style="fill:#ffffff;fill-opacity:1;fill-rule:nonzero;stroke:none"
       transform="matrix(0.77800601,0,0,-0.77800601,38.836446,94.140858)"
       clip-path="url(#clipPath21)" />
    <path
       id="path22"
       d="m 0,0 h -49.881 c -0.866,0 -0.866,-1.342 0,-1.342 H 0 C 0.865,-1.342 0.865,0 0,0"
       style="fill:#ffffff;fill-opacity:1;fill-rule:nonzero;stroke:none"
       transform="matrix(0.77800601,0,0,-0.77800601,227.36307,94.140858)"
       clip-path="url(#clipPath23)" />
    <path
       d="m 46.795084,87.498827 q 0.06555,-0.284069 0.163886,-0.600915 0.09833,-0.327772 0.262217,-0.58999 0.163886,-0.273143 0.426104,-0.447955 0.262217,-0.185737 0.666469,-0.185737 0.382401,0 0.677396,0.218515 0.30592,0.207588 0.546286,0.426103 0.284069,0.185738 0.546287,0.753876 0.262218,0.568138 0.535361,1.398493 0.284069,0.830356 0.600915,1.879226 0.327772,1.048871 0.710173,2.196073 0.393326,1.147202 0.874058,2.349032 0.480733,1.190905 1.092574,2.327181 0.09833,0.174812 0.22944,0.415178 0.131109,0.22944 0.262218,0.437029 0.142034,0.207589 0.251292,0.349624 0.120183,0.142034 0.174811,0.142034 0.03278,0 0.07648,-0.163886 0.0437,-0.163886 0.09833,-0.393326 0.05463,-0.22944 0.109257,-0.469807 0.06555,-0.240366 0.120183,-0.393326 0.207589,-0.502584 0.447955,-1.147202 0.251292,-0.655544 0.546287,-1.573305 0.305921,-0.928688 0.66647,-2.196073 0.360549,-1.267385 0.797578,-3.004576 0.109258,-0.426104 0.229441,-0.961464 0.131108,-0.546287 0.240366,-1.103499 0.120183,-0.568139 0.207589,-1.103499 0.0874,-0.535361 0.120183,-0.928688 0,-0.06555 0.01093,-0.22944 0.01093,-0.163886 0.03278,-0.371475 0.03278,-0.207589 0.07648,-0.426104 0.0437,-0.22944 0.109257,-0.415177 0.07648,-0.185738 0.185737,-0.305921 0.109258,-0.120183 0.262218,-0.120183 0.15296,0 0.371475,0.0437 0.22944,0.0437 0.415178,0.131109 0.207589,0.284069 0.371475,0.688321 0.174811,0.393326 0.174811,1.070722 0,0.426103 -0.0874,1.027019 -0.08741,0.589989 -0.229441,1.27831 -0.131109,0.677396 -0.30592,1.398494 -0.163886,0.721098 -0.338698,1.387568 -0.174812,0.655544 -0.338698,1.212756 -0.15296,0.546287 -0.262217,0.906836 -0.196663,0.633693 -0.415178,1.311088 -0.207589,0.66647 -0.469807,1.40942 -0.251291,0.732024 -0.557212,1.562379 -0.294995,0.81943 -0.66647,1.759043 -0.163886,0.426104 -0.3824,0.852207 -0.207589,0.426104 -0.480733,0.775732 -0.273143,0.33869 -0.622766,0.55721 -0.338698,0.20759 -0.764802,0.20759 -0.251291,0 -0.524435,-0.0765 -0.262217,-0.0656 -0.447955,-0.28407 -0.89591,-1.037947 -1.595157,-2.349035 -0.699247,-1.322014 -1.256459,-2.753285 -0.546287,-1.442196 -0.97239,-2.906244 -0.426104,-1.474974 -0.775727,-2.818839 l -0.06555,-0.251292 q -0.0437,-0.152961 -0.0874,-0.305921 -0.03278,-0.163886 -0.07648,-0.294995 -0.03278,-0.131108 -0.08741,-0.207589 -0.0437,-0.0874 -0.109258,-0.0874 -0.06555,0 -0.163886,0.240366 -0.09833,0.240366 -0.196663,0.546286 -0.09833,0.294995 -0.185737,0.579064 -0.07648,0.284069 -0.09833,0.360549 -0.07648,0.284069 -0.22944,0.81943 -0.152961,0.524435 -0.349624,1.190905 -0.185737,0.66647 -0.415178,1.40942 -0.218514,0.742949 -0.426103,1.442196 -0.207589,0.688322 -0.393327,1.278311 -0.185737,0.58999 -0.30592,0.950539 -0.09833,0.284069 -0.240366,0.732024 -0.142035,0.447955 -0.284069,0.906836 -0.142035,0.447955 -0.262218,0.81943 -0.120183,0.371479 -0.15296,0.491659 -0.131109,0.41518 -0.393326,0.62277 -0.251292,0.21851 -0.51351,0.21851 -0.163886,0 -0.327772,-0.12018 -0.163886,-0.10926 -0.294995,-0.27315 -0.120183,-0.16388 -0.207589,-0.34962 -0.07648,-0.19666 -0.07648,-0.34962 0,-0.08741 0.05463,-0.273147 0.05463,-0.196663 0.174812,-0.655544 l 0.284069,-1.12535 z m 3.58364,-2.775136 z m 10.608887,11.810717 q 0.163886,-0.66647 0.502583,-1.409419 0.349624,-0.753876 0.906836,-1.518677 0.557213,-0.764802 1.33294,-1.496826 0.786652,-0.732024 1.813671,-1.365716 0.163886,-0.09833 0.502584,-0.207589 0.338698,-0.120183 0.699247,-0.142035 0.426103,-0.45888 1.147202,-0.45888 0.852207,0 1.431271,0.437029 0.589989,0.426103 0.97239,1.169053 0.120183,0.240366 0.218515,0.469807 0.109257,0.22944 0.174811,0.491658 0.07648,0.251292 0.120183,0.546286 0.0437,0.294995 0.0437,0.66647 0,0.863133 -0.273143,1.759043 -0.273143,0.89591 -0.775727,1.748117 -0.502584,0.852207 -1.223682,1.63886 -0.710173,0.775727 -1.584231,1.398491 -0.58999,0.42611 -1.311088,0.65555 -0.710173,0.24036 -1.595157,0.24036 -0.841282,0 -1.464048,-0.22944 -0.611841,-0.21851 -1.027019,-0.63369 -0.404252,-0.415178 -0.611841,-0.994242 -0.196663,-0.579063 -0.196663,-1.289236 0,-0.688321 0.196663,-1.474974 z m 1.813671,0.142035 q -0.06555,0.251291 -0.09833,0.480732 -0.02185,0.218514 -0.02185,0.426103 0,0.36055 0.08741,0.677396 0.09833,0.30592 0.305921,0.535361 0.207589,0.218514 0.513509,0.349623 0.316846,0.120183 0.764801,0.120183 0.830356,0 1.540529,-0.415178 0.721098,-0.426103 1.27831,-1.059796 0.557213,-0.633692 0.928688,-1.354791 0.3824,-0.732024 0.535361,-1.343865 0.09833,-0.3824 0.163886,-0.721098 0.07648,-0.338698 0.07648,-0.622767 0,-0.284069 -0.109258,-0.524435 -0.09833,-0.251292 -0.262217,-0.557212 -0.09833,-0.185738 -0.196663,-0.382401 -0.09833,-0.207589 -0.174812,-0.404252 -0.08741,0.15296 -0.185738,0.273143 -0.09833,0.109258 -0.294994,0.207589 -0.196664,0.08741 -0.535361,0.163886 -0.338698,0.07648 -0.884985,0.131109 -0.360549,0.120183 -0.732024,0.371475 -0.371475,0.251292 -0.732024,0.589989 -0.349623,0.338698 -0.677395,0.732025 -0.316846,0.393326 -0.579064,0.808504 -0.251292,0.404252 -0.447955,0.797578 -0.185737,0.393327 -0.262218,0.721099 z m 11.810716,-5.681381 q 0.0437,-0.174812 0.120183,-0.294995 0.08741,-0.131109 0.174812,-0.207589 0.09833,-0.07648 0.174812,-0.109257 0.07648,-0.03278 0.120183,-0.03278 0.120183,0 0.284069,0.03278 0.163886,0.02185 0.316846,0.0437 0.174812,0.03278 0.338698,0.06555 0.284069,0.01093 0.404252,0.22944 0.131109,0.218515 0.131109,0.524435 0,0.240367 -0.06556,0.447956 -0.371475,1.365716 -0.677395,2.381809 -0.305921,1.005168 -0.524435,1.71534 -0.207589,0.710173 -0.327772,1.158128 -0.109258,0.447955 -0.109258,0.677395 0,0.229441 0.05463,0.51351 0.06555,0.284069 0.185737,0.535361 0.120183,0.240366 0.305921,0.404252 0.185737,0.163886 0.447955,0.163886 0.458881,0 0.928687,-0.284069 0.469807,-0.284069 0.89591,-0.688321 0.426104,-0.415178 0.764802,-0.874059 0.349623,-0.469807 0.568138,-0.830356 l 0.284069,-0.491658 q 0.262217,-0.45888 0.480732,-1.04887 0.22944,-0.600915 0.393326,-1.201831 0.174812,-0.600915 0.294995,-1.12535 0.120183,-0.535361 0.185738,-0.852207 l 0.284069,-1.453123 q 0.0874,-0.415177 0.262217,-0.568138 0.185738,-0.163886 0.611841,-0.163886 0.273144,0 0.491658,0.06556 0.218515,0.05463 0.371475,0.207589 0.15296,0.15296 0.22944,0.415177 0.07648,0.251292 0.07648,0.655544 0,0.469807 -0.152961,1.158128 -0.142034,0.677395 -0.316846,1.365717 -0.09833,0.404252 -0.207589,0.863132 -0.09833,0.447956 -0.185737,0.906836 -0.07648,0.447955 -0.131109,0.863133 -0.0437,0.404252 -0.0437,0.732024 0,0.557213 0.03278,1.114425 0.0437,0.557212 0.0437,1.179979 0,0.284069 -0.02185,0.502584 -0.01093,0.218514 -0.0437,0.327775 -0.120183,0.4261 -0.316847,0.63369 -0.185737,0.20759 -0.644618,0.20759 -0.316846,0 -0.502583,-0.0765 -0.185738,-0.0656 -0.294995,-0.18574 -0.09833,-0.12018 -0.131109,-0.26222 -0.03278,-0.15296 -0.0437,-0.30592 l -0.120183,-2.064961 -0.09833,0.03278 q -0.360549,0.458881 -0.786652,1.027019 -0.426104,0.568138 -0.939613,1.059795 -0.51351,0.49166 -1.125351,0.81943 -0.600915,0.3387 -1.311088,0.3387 -0.142034,0 -0.371475,-0.0765 -0.218514,-0.0656 -0.45888,-0.17481 -0.240366,-0.10926 -0.458881,-0.25129 -0.218515,-0.13111 -0.349624,-0.2513 -0.600915,-0.557209 -0.852207,-1.256456 -0.251292,-0.699247 -0.251292,-1.420345 0,-0.404252 0.06556,-0.808504 0.06555,-0.404253 0.15296,-0.775727 0.08741,-0.382401 0.185738,-0.710173 0.109257,-0.338698 0.174811,-0.600915 0.207589,-0.81943 0.371475,-1.442197 0.163886,-0.622767 0.284069,-1.092573 0.131109,-0.469807 0.218515,-0.797579 0.08741,-0.338698 0.15296,-0.589989 z m 10.761847,7.790047 q 0.08741,0 0.152961,0.02185 0.07648,0.02185 0.163886,0.05463 0.08741,0.02185 0.196663,0.0437 0.109257,0.02185 0.284069,0.02185 0.513509,0 1.136276,-0.109257 0.633693,-0.109257 1.190905,-0.284069 0.557212,-0.174812 0.950539,-0.393326 0.404252,-0.229441 0.45888,-0.469807 0.03278,-0.131109 0.03278,-0.22944 0,-0.185738 -0.185738,-0.349624 -0.174811,-0.174811 -0.447955,-0.327772 -0.273143,-0.15296 -0.589989,-0.284069 -0.316847,-0.131108 -0.58999,-0.240366 l -0.371475,-0.15296 q -0.284069,-0.109257 -0.557212,-0.262218 -0.273143,-0.163886 -0.51351,-0.371474 -0.22944,-0.207589 -0.415177,-0.480733 -0.174812,-0.284069 -0.262218,-0.644618 -0.0437,-0.15296 -0.07648,-0.30592 -0.02185,-0.152961 -0.02185,-0.327772 0,-0.284069 0.185738,-0.644619 0.196663,-0.371475 0.513509,-0.732024 0.327772,-0.360549 0.732024,-0.688321 0.415178,-0.327772 0.863133,-0.546286 0.327772,-0.229441 0.633693,-0.415178 0.30592,-0.185738 0.611841,-0.316847 0.316846,-0.131108 0.633692,-0.207588 0.327772,-0.07648 0.688321,-0.07648 0.327772,0 0.710173,0.03278 0.382401,0.03278 0.699247,0.15296 0.316846,0.120183 0.524435,0.360549 0.218515,0.22944 0.218515,0.622767 0,0.120183 -0.03278,0.316846 -0.03278,0.196663 -0.109257,0.393326 -0.07648,0.196664 -0.185737,0.338698 -0.109258,0.142035 -0.262218,0.142035 -0.251292,0 -0.415178,-0.09833 -0.163886,-0.09833 -0.294994,-0.207589 -0.131109,-0.120183 -0.273144,-0.218515 -0.142034,-0.09833 -0.349623,-0.09833 -0.251292,0 -0.58999,0.09833 -0.327772,0.08741 -0.677395,0.251292 -0.349624,0.152961 -0.688321,0.360549 -0.327772,0.207589 -0.600916,0.426104 -0.262217,0.218515 -0.426103,0.437029 -0.163886,0.207589 -0.163886,0.382401 0,0.185737 0.120183,0.30592 0.120183,0.120184 0.30592,0.207589 0.240366,0.131109 0.546287,0.262218 0.316846,0.131109 0.633692,0.262218 0.316847,0.131108 0.611841,0.262217 0.305921,0.131109 0.524436,0.240366 0.294994,0.152961 0.524435,0.305921 0.240366,0.142034 0.404252,0.316846 0.163886,0.174812 0.251292,0.393326 0.08741,0.218515 0.08741,0.51351 0,0.142034 -0.02185,0.284069 -0.02185,0.142034 -0.06555,0.327772 -0.03278,0.163886 -0.120183,0.3824 -0.07648,0.218515 -0.174812,0.43703 -0.08741,0.207589 -0.185737,0.3824 -0.09833,0.163886 -0.163886,0.218515 -0.426104,0.393326 -1.005168,0.74295 -0.579064,0.338698 -1.212756,0.600911 -0.622767,0.2513 -1.256459,0.40426 -0.622767,0.15296 -1.147202,0.15296 -0.262218,0 -0.579064,-0.0983 -0.316846,-0.10925 -0.58999,-0.27314 -0.262217,-0.17481 -0.447955,-0.393325 -0.174811,-0.218514 -0.174811,-0.437029 0,-0.109257 0.06555,-0.240366 0.06555,-0.142035 0.163886,-0.251292 0.09833,-0.120183 0.207589,-0.196663 0.120183,-0.08741 0.218514,-0.08741 z m 20.179825,0 q 0.0874,0 0.15296,0.02185 0.0765,0.02185 0.16389,0.05463 0.0874,0.02185 0.19666,0.0437 0.10926,0.02185 0.28407,0.02185 0.51351,0 1.13628,-0.109257 0.63369,-0.109257 1.1909,-0.284069 0.55722,-0.174812 0.95054,-0.393326 0.40425,-0.229441 0.45888,-0.469807 0.0328,-0.131109 0.0328,-0.22944 0,-0.185738 -0.18574,-0.349624 -0.17481,-0.174811 -0.44795,-0.327772 -0.27315,-0.15296 -0.58999,-0.284069 -0.31685,-0.131108 -0.58999,-0.240366 l -0.37148,-0.15296 q -0.28407,-0.109257 -0.55721,-0.262218 -0.27314,-0.163886 -0.51351,-0.371474 -0.22944,-0.207589 -0.41518,-0.480733 -0.17481,-0.284069 -0.26221,-0.644618 -0.0437,-0.15296 -0.0765,-0.30592 -0.0219,-0.152961 -0.0219,-0.327772 0,-0.284069 0.18573,-0.644619 0.19667,-0.371475 0.51351,-0.732024 0.32777,-0.360549 0.73203,-0.688321 0.41517,-0.327772 0.86313,-0.546286 0.32777,-0.229441 0.63369,-0.415178 0.30592,-0.185738 0.61184,-0.316847 0.31685,-0.131108 0.63369,-0.207588 0.32778,-0.07648 0.68833,-0.07648 0.32777,0 0.71017,0.03278 0.3824,0.03278 0.69925,0.15296 0.31684,0.120183 0.52443,0.360549 0.21852,0.22944 0.21852,0.622767 0,0.120183 -0.0328,0.316846 -0.0328,0.196663 -0.10926,0.393326 -0.0765,0.196664 -0.18574,0.338698 -0.10925,0.142035 -0.26221,0.142035 -0.2513,0 -0.41518,-0.09833 -0.16389,-0.09833 -0.295,-0.207589 -0.13111,-0.120183 -0.27314,-0.218515 -0.14203,-0.09833 -0.34962,-0.09833 -0.2513,0 -0.58999,0.09833 -0.32778,0.08741 -0.6774,0.251292 -0.34962,0.152961 -0.68832,0.360549 -0.32777,0.207589 -0.60092,0.426104 -0.26221,0.218515 -0.4261,0.437029 -0.16388,0.207589 -0.16388,0.382401 0,0.185737 0.12018,0.30592 0.12018,0.120184 0.30592,0.207589 0.24037,0.131109 0.54629,0.262218 0.31684,0.131109 0.63369,0.262218 0.31684,0.131108 0.61184,0.262217 0.30592,0.131109 0.52443,0.240366 0.295,0.152961 0.52444,0.305921 0.24037,0.142034 0.40425,0.316846 0.16389,0.174812 0.25129,0.393326 0.0874,0.218515 0.0874,0.51351 0,0.142034 -0.0219,0.284069 -0.0219,0.142034 -0.0656,0.327772 -0.0328,0.163886 -0.12018,0.3824 -0.0765,0.218515 -0.17481,0.43703 -0.0874,0.207589 -0.18574,0.3824 -0.0983,0.163886 -0.16388,0.218515 -0.42611,0.393326 -1.00517,0.74295 -0.57907,0.338698 -1.21276,0.600911 -0.62277,0.2513 -1.25646,0.40426 -0.62276,0.15296 -1.1472,0.15296 -0.26222,0 -0.57906,-0.0983 -0.31685,-0.10925 -0.58999,-0.27314 -0.26222,-0.17481 -0.44796,-0.393325 -0.17481,-0.218514 -0.17481,-0.437029 0,-0.109257 0.0656,-0.240366 0.0656,-0.142035 0.16389,-0.251292 0.0983,-0.120183 0.20759,-0.196663 0.12018,-0.08741 0.21851,-0.08741 z m 9.10114,-2.250701 q 0.16388,-0.66647 0.50258,-1.409419 0.34962,-0.753876 0.90684,-1.518677 0.55721,-0.764802 1.33294,-1.496826 0.78665,-0.732024 1.81367,-1.365716 0.16388,-0.09833 0.50258,-0.207589 0.3387,-0.120183 0.69925,-0.142035 0.4261,-0.45888 1.1472,-0.45888 0.85221,0 1.43127,0.437029 0.58999,0.426103 0.97239,1.169053 0.12018,0.240366 0.21852,0.469807 0.10925,0.22944 0.17481,0.491658 0.0765,0.251292 0.12018,0.546286 0.0437,0.294995 0.0437,0.66647 0,0.863133 -0.27314,1.759043 -0.27314,0.89591 -0.77573,1.748117 -0.50258,0.852207 -1.22368,1.63886 -0.71017,0.775727 -1.58423,1.398491 -0.58999,0.42611 -1.31109,0.65555 -0.71017,0.24036 -1.59515,0.24036 -0.84129,0 -1.46405,-0.22944 -0.61184,-0.21851 -1.02702,-0.63369 -0.40425,-0.415178 -0.61184,-0.994242 -0.19667,-0.579063 -0.19667,-1.289236 0,-0.688321 0.19667,-1.474974 z m 1.81367,0.142035 q -0.0656,0.251291 -0.0983,0.480732 -0.0219,0.218514 -0.0219,0.426103 0,0.36055 0.0874,0.677396 0.0983,0.30592 0.30592,0.535361 0.20759,0.218514 0.51351,0.349623 0.31685,0.120183 0.7648,0.120183 0.83036,0 1.54053,-0.415178 0.7211,-0.426103 1.27831,-1.059796 0.55721,-0.633692 0.92869,-1.354791 0.3824,-0.732024 0.53536,-1.343865 0.0983,-0.3824 0.16389,-0.721098 0.0765,-0.338698 0.0765,-0.622767 0,-0.284069 -0.10926,-0.524435 -0.0983,-0.251292 -0.26222,-0.557212 -0.0983,-0.185738 -0.19666,-0.382401 -0.0983,-0.207589 -0.17481,-0.404252 -0.0874,0.15296 -0.18574,0.273143 -0.0983,0.109258 -0.295,0.207589 -0.19666,0.08741 -0.53536,0.163886 -0.33869,0.07648 -0.88498,0.131109 -0.36055,0.120183 -0.73203,0.371475 -0.37147,0.251292 -0.73202,0.589989 -0.34962,0.338698 -0.67739,0.732025 -0.31685,0.393326 -0.57907,0.808504 -0.25129,0.404252 -0.44795,0.797578 -0.18574,0.393327 -0.26222,0.721099 z m 9.92056,3.321422 q 0.32777,-1.27831 0.63369,-2.381809 0.30592,-1.103499 0.58999,-2.108667 0.295,-1.016093 0.56814,-1.966632 0.27314,-0.950538 0.52444,-1.933854 0.0983,-0.382401 0.10925,-0.732024 0.0219,-0.36055 0.10926,-0.74295 0.0437,-0.131109 0.15296,-0.229441 0.12018,-0.109257 0.26222,-0.185737 0.14203,-0.07648 0.29499,-0.120183 0.16389,-0.0437 0.30592,-0.0437 0.30592,0 0.50259,0.07648 0.20759,0.06555 0.32777,0.185738 0.13111,0.120183 0.17481,0.294994 0.0546,0.163886 0.0546,0.371475 0,0.371475 -0.12018,0.753876 -0.12019,0.371475 -0.295,0.81943 0.51351,-0.404252 1.04887,-0.764802 0.54629,-0.360549 1.11443,-0.633692 0.57906,-0.273143 1.17998,-0.437029 0.60091,-0.163886 1.24553,-0.163886 0.29499,0 0.58999,0.09833 0.29499,0.08741 0.52443,0.284069 0.24037,0.196663 0.39333,0.51351 0.16389,0.316846 0.18574,0.775727 0.4698,-0.316847 0.97239,-0.633693 0.50258,-0.327772 1.01609,-0.579064 0.52444,-0.262217 1.03795,-0.415177 0.52443,-0.163886 1.01609,-0.163886 0.73202,0 1.20183,0.196663 0.48073,0.185737 0.75388,0.513509 0.28406,0.316846 0.39332,0.74295 0.12018,0.426104 0.12018,0.906836 0,0.524435 -0.0983,1.081647 -0.0983,0.557213 -0.21851,1.059796 -0.31685,1.267385 -0.71017,2.403662 -0.39333,1.12535 -0.85221,2.283478 -0.10926,0.273143 -0.22944,0.579063 -0.12018,0.30592 -0.28407,0.56814 -0.15296,0.25129 -0.37148,0.4261 -0.20758,0.16389 -0.49165,0.16389 -0.64462,0 -0.88499,-0.21852 -0.24036,-0.21851 -0.24036,-0.62276 0,-0.109261 0.0109,-0.251295 0.0109,-0.142035 0.0546,-0.273143 0.0437,-0.163886 0.19666,-0.469807 0.15296,-0.316846 0.32778,-0.677395 0.18573,-0.36055 0.36054,-0.721099 0.17482,-0.371475 0.26222,-0.644618 0.14204,-0.469806 0.32777,-1.081647 0.19667,-0.622767 0.37148,-1.245534 0.17481,-0.633692 0.28407,-1.190905 0.12018,-0.568138 0.12018,-0.917761 0,-0.163886 -0.0328,-0.327772 -0.0328,-0.163886 -0.12018,-0.284069 -0.0765,-0.120183 -0.22944,-0.196664 -0.14203,-0.07648 -0.37147,-0.07648 -0.32778,0 -0.78666,0.185738 -0.44795,0.185737 -0.93961,0.491658 -0.48073,0.294995 -0.93961,0.677395 -0.45888,0.371475 -0.78666,0.74295 -0.22944,0.262218 -0.43702,0.426104 -0.20759,0.163886 -0.41518,0.251291 -0.0219,0.0437 -0.10926,0.294995 -0.0874,0.240366 -0.20759,0.58999 -0.12018,0.338697 -0.25129,0.74295 -0.13111,0.393326 -0.25129,0.742949 -0.10926,0.338698 -0.18574,0.579064 -0.0765,0.229441 -0.0765,0.251292 -0.0765,0.305921 -0.13111,0.633693 -0.0546,0.316846 -0.0983,0.611841 -0.0437,0.294994 -0.0874,0.633692 -0.0328,0.327772 -0.15296,0.622767 -0.10925,0.28407 -0.34962,0.46981 -0.22944,0.18573 -0.65554,0.18573 -0.21852,0 -0.40426,-0.10925 -0.17481,-0.10926 -0.30592,-0.27315 -0.13111,-0.17481 -0.20759,-0.3824 -0.0765,-0.218512 -0.0874,-0.437027 0.25129,-0.983316 0.49166,-1.769969 0.24036,-0.786652 0.48073,-1.507751 0.24036,-0.721098 0.45888,-1.442196 0.22944,-0.732024 0.44795,-1.606083 0.0546,-0.207589 0.0874,-0.404252 0.0328,-0.207589 0.0328,-0.360549 0,-0.262218 -0.10926,-0.426104 -0.10926,-0.174812 -0.3824,-0.174812 -0.44796,0 -0.89591,0.185738 -0.43703,0.174812 -0.95054,0.557212 -0.51351,0.382401 -1.1472,0.97239 -0.62277,0.58999 -1.4422,1.40942 -0.0874,0.163886 -0.22944,0.611841 -0.14203,0.447955 -0.29499,0.950539 -0.14204,0.502583 -0.26222,0.939613 -0.12018,0.426103 -0.15296,0.568138 -0.12018,0.458881 -0.16389,0.775727 -0.0437,0.30592 -0.0765,0.557212 -0.0218,0.131109 -0.0655,0.437029 -0.0437,0.294994 -0.16389,0.600914 -0.10925,0.30592 -0.31684,0.53536 -0.20759,0.24037 -0.54629,0.24037 -0.50258,0 -0.83036,-0.27314 -0.31684,-0.27315 -0.31684,-0.68833 0,-0.0765 0.0109,-0.14203 0.0109,-0.0656 0.0328,-0.142035 z m 19.21837,0 q 0.32777,-1.27831 0.63369,-2.381809 0.30592,-1.103499 0.58999,-2.108667 0.295,-1.016093 0.56814,-1.966632 0.27314,-0.950538 0.52443,-1.933854 0.0983,-0.382401 0.10926,-0.732024 0.0219,-0.36055 0.10926,-0.74295 0.0437,-0.131109 0.15296,-0.229441 0.12018,-0.109257 0.26222,-0.185737 0.14203,-0.07648 0.29499,-0.120183 0.16389,-0.0437 0.30592,-0.0437 0.30592,0 0.50259,0.07648 0.20758,0.06555 0.32777,0.185738 0.13111,0.120183 0.17481,0.294994 0.0546,0.163886 0.0546,0.371475 0,0.371475 -0.12018,0.753876 -0.12019,0.371475 -0.295,0.81943 0.51351,-0.404252 1.04887,-0.764802 0.54629,-0.360549 1.11443,-0.633692 0.57906,-0.273143 1.17997,-0.437029 0.60092,-0.163886 1.24554,-0.163886 0.29499,0 0.58999,0.09833 0.29499,0.08741 0.52443,0.284069 0.24037,0.196663 0.39333,0.51351 0.16389,0.316846 0.18574,0.775727 0.4698,-0.316847 0.97239,-0.633693 0.50258,-0.327772 1.01609,-0.579064 0.52444,-0.262217 1.03794,-0.415177 0.52444,-0.163886 1.0161,-0.163886 0.73202,0 1.20183,0.196663 0.48073,0.185737 0.75387,0.513509 0.28407,0.316846 0.39333,0.74295 0.12018,0.426104 0.12018,0.906836 0,0.524435 -0.0983,1.081647 -0.0983,0.557213 -0.21851,1.059796 -0.31685,1.267385 -0.71018,2.403662 -0.39332,1.12535 -0.8522,2.283478 -0.10926,0.273143 -0.22944,0.579063 -0.12019,0.30592 -0.28407,0.56814 -0.15296,0.25129 -0.37148,0.4261 -0.20759,0.16389 -0.49165,0.16389 -0.64462,0 -0.88499,-0.21852 -0.24037,-0.21851 -0.24037,-0.62276 0,-0.109261 0.0109,-0.251295 0.0109,-0.142035 0.0546,-0.273143 0.0437,-0.163886 0.19666,-0.469807 0.15296,-0.316846 0.32777,-0.677395 0.18574,-0.36055 0.36055,-0.721099 0.17482,-0.371475 0.26222,-0.644618 0.14204,-0.469806 0.32777,-1.081647 0.19667,-0.622767 0.37148,-1.245534 0.17481,-0.633692 0.28407,-1.190905 0.12018,-0.568138 0.12018,-0.917761 0,-0.163886 -0.0328,-0.327772 -0.0328,-0.163886 -0.12018,-0.284069 -0.0765,-0.120183 -0.22944,-0.196664 -0.14204,-0.07648 -0.37148,-0.07648 -0.32777,0 -0.78665,0.185738 -0.44795,0.185737 -0.93961,0.491658 -0.48073,0.294995 -0.93961,0.677395 -0.45889,0.371475 -0.78666,0.74295 -0.22944,0.262218 -0.43703,0.426104 -0.20759,0.163886 -0.41517,0.251291 -0.0219,0.0437 -0.10926,0.294995 -0.0874,0.240366 -0.20759,0.58999 -0.12018,0.338697 -0.25129,0.74295 -0.13111,0.393326 -0.25129,0.742949 -0.10926,0.338698 -0.18574,0.579064 -0.0765,0.229441 -0.0765,0.251292 -0.0765,0.305921 -0.13111,0.633693 -0.0546,0.316846 -0.0983,0.611841 -0.0437,0.294994 -0.0874,0.633692 -0.0328,0.327772 -0.15296,0.622767 -0.10926,0.28407 -0.34962,0.46981 -0.22944,0.18573 -0.65555,0.18573 -0.21851,0 -0.40425,-0.10925 -0.17481,-0.10926 -0.30592,-0.27315 -0.13111,-0.17481 -0.20759,-0.3824 -0.0765,-0.218512 -0.0874,-0.437027 0.25129,-0.983316 0.49165,-1.769969 0.24037,-0.786652 0.48074,-1.507751 0.24036,-0.721098 0.45888,-1.442196 0.22944,-0.732024 0.44795,-1.606083 0.0546,-0.207589 0.0874,-0.404252 0.0328,-0.207589 0.0328,-0.360549 0,-0.262218 -0.10926,-0.426104 -0.10926,-0.174812 -0.3824,-0.174812 -0.44796,0 -0.89591,0.185738 -0.43703,0.174812 -0.95054,0.557212 -0.51351,0.382401 -1.1472,0.97239 -0.62277,0.58999 -1.4422,1.40942 -0.0874,0.163886 -0.22944,0.611841 -0.14203,0.447955 -0.29499,0.950539 -0.14204,0.502583 -0.26222,0.939613 -0.12019,0.426103 -0.15296,0.568138 -0.12019,0.458881 -0.16389,0.775727 -0.0437,0.30592 -0.0765,0.557212 -0.0219,0.131109 -0.0656,0.437029 -0.0437,0.294994 -0.16389,0.600914 -0.10926,0.30592 -0.31685,0.53536 -0.20758,0.24037 -0.54628,0.24037 -0.50259,0 -0.83036,-0.27314 -0.31684,-0.27315 -0.31684,-0.68833 0,-0.0765 0.0109,-0.14203 0.0109,-0.0656 0.0328,-0.142035 z m 19.05447,-3.496234 q 0,-0.469807 0.2513,-0.797579 0.25129,-0.327772 0.66647,-0.437029 0.12018,-0.240366 0.37147,-0.644618 0.25129,-0.415178 0.62277,-0.89591 0.37147,-0.480732 0.84128,-0.961465 0.48073,-0.491658 1.04887,-0.884984 0.57906,-0.404252 1.23461,-0.655544 0.66647,-0.251292 1.40942,-0.251292 0.63369,0 1.1035,0.15296 0.4698,0.152961 0.77572,0.426104 0.30592,0.273143 0.45888,0.655544 0.15296,0.371475 0.15296,0.808504 0,0.371475 -0.0983,0.710173 -0.15296,0.611841 -0.56814,1.070722 -0.41517,0.45888 -0.98331,0.808504 -0.55721,0.338697 -1.22368,0.568138 -0.65555,0.22944 -1.32202,0.382401 -0.65554,0.15296 -1.26738,0.240366 -0.61184,0.07648 -1.0598,0.120183 -0.0983,0.196663 -0.17481,0.502583 -0.0656,0.294995 -0.0656,0.579064 0,0.633693 0.50259,0.983316 0.50258,0.349624 1.38757,0.349624 0.51351,0 0.98331,-0.109258 0.46981,-0.120183 0.88499,-0.294995 0.4261,-0.185737 0.79758,-0.393326 0.37147,-0.218515 0.67739,-0.426103 0.39333,-0.262218 0.74295,-0.43703 0.36055,-0.185737 0.63369,-0.185737 0.27315,0 0.34963,0.142034 0.0765,0.131109 0.0765,0.284069 0,0.08741 -0.0109,0.174812 0,0.07648 -0.0109,0.131109 -0.0546,0.284069 -0.21852,0.568138 -0.16389,0.284069 -0.41518,0.491658 -1.13627,0.895913 -2.3381,1.278313 -1.19091,0.3824 -2.5457,0.3824 -0.26222,0 -0.62277,-0.0328 -0.34962,-0.0328 -0.73202,-0.13111 -0.3824,-0.0983 -0.75388,-0.28407 -0.37147,-0.18573 -0.66647,-0.491655 -0.28406,-0.30592 -0.4698,-0.753875 -0.17481,-0.447955 -0.17481,-1.081648 0,-0.513509 0.14203,-1.147202 -0.14203,-0.02185 -0.27314,-0.142034 -0.12019,-0.131109 -0.12019,-0.371475 z m 6.83951,-3.026428 q 0.0219,-0.05463 0.0219,-0.09833 0,-0.0437 0,-0.09833 0,-0.294995 -0.21851,-0.43703 -0.21852,-0.15296 -0.52444,-0.15296 -0.48073,0 -0.95053,0.251292 -0.45889,0.251292 -0.87406,0.633693 -0.40426,0.371474 -0.7211,0.808504 -0.31685,0.426103 -0.49166,0.775727 0.78665,-0.06555 1.4422,-0.207589 0.65554,-0.15296 1.13627,-0.371475 0.49166,-0.22944 0.78666,-0.502584 0.30592,-0.284069 0.39332,-0.600915 z m -1.26738,-2.960874 z m 5.8999,8.27078 q 0.0874,0 0.15296,0.02185 0.0765,0.02185 0.16388,0.05463 0.0874,0.02185 0.19667,0.0437 0.10926,0.02185 0.28407,0.02185 0.51351,0 1.13627,-0.109257 0.6337,-0.109257 1.19091,-0.284069 0.55721,-0.174812 0.95054,-0.393326 0.40425,-0.229441 0.45888,-0.469807 0.0328,-0.131109 0.0328,-0.22944 0,-0.185738 -0.18573,-0.349624 -0.17481,-0.174811 -0.44796,-0.327772 -0.27314,-0.15296 -0.58999,-0.284069 -0.31684,-0.131108 -0.58999,-0.240366 l -0.37147,-0.15296 q -0.28407,-0.109257 -0.55721,-0.262218 -0.27315,-0.163886 -0.51351,-0.371474 -0.22944,-0.207589 -0.41518,-0.480733 -0.17481,-0.284069 -0.26222,-0.644618 -0.0437,-0.15296 -0.0765,-0.30592 -0.0219,-0.152961 -0.0219,-0.327772 0,-0.284069 0.18574,-0.644619 0.19666,-0.371475 0.51351,-0.732024 0.32777,-0.360549 0.73202,-0.688321 0.41518,-0.327772 0.86313,-0.546286 0.32778,-0.229441 0.6337,-0.415178 0.30592,-0.185738 0.61184,-0.316847 0.31684,-0.131108 0.63369,-0.207588 0.32777,-0.07648 0.68832,-0.07648 0.32777,0 0.71017,0.03278 0.3824,0.03278 0.69925,0.15296 0.31685,0.120183 0.52444,0.360549 0.21851,0.22944 0.21851,0.622767 0,0.120183 -0.0328,0.316846 -0.0328,0.196663 -0.10925,0.393326 -0.0765,0.196664 -0.18574,0.338698 -0.10926,0.142035 -0.26222,0.142035 -0.25129,0 -0.41518,-0.09833 -0.16388,-0.09833 -0.29499,-0.207589 -0.13111,-0.120183 -0.27315,-0.218515 -0.14203,-0.09833 -0.34962,-0.09833 -0.25129,0 -0.58999,0.09833 -0.32777,0.08741 -0.67739,0.251292 -0.34963,0.152961 -0.68833,0.360549 -0.32777,0.207589 -0.60091,0.426104 -0.26222,0.218515 -0.4261,0.437029 -0.16389,0.207589 -0.16389,0.382401 0,0.185737 0.12018,0.30592 0.12019,0.120184 0.30592,0.207589 0.24037,0.131109 0.54629,0.262218 0.31685,0.131109 0.63369,0.262218 0.31685,0.131108 0.61184,0.262217 0.30592,0.131109 0.52444,0.240366 0.29499,0.152961 0.52443,0.305921 0.24037,0.142034 0.40426,0.316846 0.16388,0.174812 0.25129,0.393326 0.0874,0.218515 0.0874,0.51351 0,0.142034 -0.0219,0.284069 -0.0219,0.142034 -0.0656,0.327772 -0.0328,0.163886 -0.12019,0.3824 -0.0765,0.218515 -0.17481,0.43703 -0.0874,0.207589 -0.18573,0.3824 -0.0983,0.163886 -0.16389,0.218515 -0.4261,0.393326 -1.00517,0.74295 -0.57906,0.338698 -1.21275,0.600911 -0.62277,0.2513 -1.25646,0.40426 -0.62277,0.15296 -1.14721,0.15296 -0.26221,0 -0.57906,-0.0983 -0.31685,-0.10925 -0.58999,-0.27314 -0.26222,-0.17481 -0.44795,-0.393325 -0.17482,-0.218514 -0.17482,-0.437029 0,-0.109257 0.0656,-0.240366 0.0655,-0.142035 0.16389,-0.251292 0.0983,-0.120183 0.20758,-0.196663 0.12019,-0.08741 0.21852,-0.08741 z"
       id="text31"
       style="-inkscape-font-specification:'MV Boli';fill:#ffffff;stroke-width:0.78129"
       aria-label="Nous sommes" />
    <path
       d="m 22.022244,122.33694 q 0,3.90205 -0.191905,5.53324 -0.175912,1.6152 -1.151427,2.95853 -0.959522,1.34333 -2.606703,2.06297 -1.64718,0.71965 -3.83809,0.71965 -2.078965,0 -3.742137,-0.67167 -1.6471807,-0.68766 -2.6546793,-2.04698 -1.0074986,-1.35932 -1.1994031,-2.95853 -0.1919045,-1.5992 -0.1919045,-5.59721 v -4.4298 q 0,-3.90206 0.1759124,-5.51725 0.1919045,-1.63119 1.151427,-2.97452 0.9755146,-1.34333 2.6226945,-2.06298 1.647181,-0.71964 3.83809,-0.71964 2.078966,0 3.726146,0.68766 1.663172,0.67167 2.670671,2.03099 1.007499,1.35932 1.199403,2.95853 0.191905,1.5992 0.191905,5.59721 z m -6.73265,-8.50777 q 0,-1.8071 -0.207896,-2.30285 -0.191905,-0.51175 -0.815595,-0.51175 -0.527737,0 -0.815594,0.41579 -0.271864,0.39981 -0.271864,2.39881 v 12.08998 q 0,2.25488 0.175912,2.78262 0.191905,0.52774 0.86357,0.52774 0.687658,0 0.879563,-0.6077 0.191904,-0.6077 0.191904,-2.89456 z m 24.547783,-6.65269 v 17.30339 q 0,2.94254 -0.191904,4.14194 -0.191905,1.18341 -1.135435,2.44678 -0.943531,1.24738 -2.494759,1.90305 -1.535236,0.63969 -3.630193,0.63969 -2.318846,0 -4.093963,-0.76762 -1.775116,-0.76762 -2.654679,-1.99901 -0.879562,-1.23138 -1.039482,-2.59071 -0.159921,-1.37531 -0.159921,-5.75713 v -15.32038 h 6.73265 v 19.41434 q 0,1.69516 0.175912,2.17492 0.191905,0.46377 0.751626,0.46377 0.639682,0 0.815594,-0.51175 0.191905,-0.52774 0.191905,-2.46277 v -19.07851 z m 18.598747,0 -3.422297,25.89112 H 44.794913 l -3.886067,-25.89112 h 7.100467 q 1.231387,10.69868 1.759125,18.087 0.527737,-7.46828 1.10345,-13.27339 l 0.46377,-4.81361 z m 1.151425,0 h 11.226414 v 5.18142 h -4.493764 v 4.90956 h 4.205907 v 4.92555 h -4.205907 v 5.69316 h 4.941541 v 5.18143 H 59.587549 Z m 13.609227,0 h 4.765628 q 4.765628,0 6.444793,0.36782 1.695156,0.36781 2.750631,1.88706 1.071467,1.50325 1.071467,4.8136 0,3.0225 -0.751626,4.06198 -0.751626,1.03948 -2.958528,1.24738 1.999005,0.49575 2.686663,1.32734 0.687658,0.83159 0.847578,1.53524 0.175913,0.68765 0.175913,3.82209 v 6.82861 h -6.252889 v -8.60372 q 0,-2.07897 -0.335832,-2.57472 -0.319841,-0.49575 -1.711149,-0.49575 v 11.67419 h -6.732649 z m 6.732649,4.4298 v 5.75713 q 1.135435,0 1.583212,-0.30385 0.463769,-0.31984 0.463769,-2.03099 v -1.42329 q 0,-1.23139 -0.447777,-1.61519 -0.431785,-0.38381 -1.599204,-0.38381 z m 24.467825,-4.4298 v 5.18142 h -3.99801 v 20.7097 H 93.666588 V 112.3579 H 89.68457 v -5.18142 z m 21.57326,7.8361 h -6.25289 v -1.91904 q 0,-1.34334 -0.23988,-1.71115 -0.23988,-0.36782 -0.7996,-0.36782 -0.6077,0 -0.92754,0.49575 -0.30385,0.49576 -0.30385,1.50326 0,1.29535 0.35183,1.95103 0.33583,0.65567 1.90305,1.58321 4.49376,2.67067 5.66118,4.38182 1.16742,1.71115 1.16742,5.51725 0,2.76662 -0.65567,4.07797 -0.63968,1.31135 -2.49476,2.2069 -1.85508,0.87957 -4.31785,0.87957 -2.70266,0 -4.6217,-1.02349 -1.90305,-1.0235 -2.49476,-2.60671 -0.5917,-1.58321 -0.5917,-4.49376 v -1.69516 h 6.25288 v 3.15043 q 0,1.45528 0.25588,1.87107 0.27186,0.4158 0.94353,0.4158 0.67166,0 0.9915,-0.52774 0.33584,-0.52774 0.33584,-1.56722 0,-2.28686 -0.62369,-2.99051 -0.63968,-0.70365 -3.15044,-2.35083 -2.51075,-1.66318 -3.32634,-2.4148 -0.81559,-0.75163 -1.35932,-2.07897 -0.52774,-1.32734 -0.52774,-3.39031 0,-2.97452 0.75162,-4.34983 0.76762,-1.37532 2.46278,-2.14294 1.69516,-0.78361 4.09396,-0.78361 2.6227,0 4.46178,0.84758 1.85508,0.84758 2.44678,2.14293 0.6077,1.27937 0.6077,4.36583 z m 17.97505,-7.8361 v 17.30339 q 0,2.94254 -0.1919,4.14194 -0.1919,1.18341 -1.13544,2.44678 -0.94353,1.24738 -2.49475,1.90305 -1.53524,0.63969 -3.6302,0.63969 -2.31884,0 -4.09396,-0.76762 -1.77512,-0.76762 -2.65468,-1.99901 -0.87956,-1.23138 -1.03948,-2.59071 -0.15992,-1.37531 -0.15992,-5.75713 v -15.32038 h 6.73265 v 19.41434 q 0,1.69516 0.17591,2.17492 0.1919,0.46377 0.75163,0.46377 0.63968,0 0.81559,-0.51175 0.1919,-0.52774 0.1919,-2.46277 v -19.07851 z m 2.60671,0 h 4.76563 q 4.76562,0 6.44479,0.36782 1.69515,0.36781 2.75063,1.88706 1.07147,1.50325 1.07147,4.8136 0,3.0225 -0.75163,4.06198 -0.75163,1.03948 -2.95853,1.24738 1.99901,0.49575 2.68667,1.32734 0.68765,0.83159 0.84757,1.53524 0.17592,0.68765 0.17592,3.82209 v 6.82861 h -6.25289 v -8.60372 q 0,-2.07897 -0.33583,-2.57472 -0.31985,-0.49575 -1.71115,-0.49575 v 11.67419 h -6.73265 z m 6.73265,4.4298 v 5.75713 q 1.13543,0 1.58321,-0.30385 0.46377,-0.31984 0.46377,-2.03099 v -1.42329 q 0,-1.23139 -0.44778,-1.61519 -0.43178,-0.38381 -1.5992,-0.38381 z m 16.6797,-4.4298 h 4.76563 q 4.76563,0 6.44479,0.36782 1.69516,0.36781 2.75063,1.88706 1.07147,1.50325 1.07147,4.8136 0,3.0225 -0.75163,4.06198 -0.75162,1.03948 -2.95852,1.24738 1.999,0.49575 2.68666,1.32734 0.68766,0.83159 0.84758,1.53524 0.17591,0.68765 0.17591,3.82209 v 6.82861 h -6.25289 v -8.60372 q 0,-2.07897 -0.33583,-2.57472 -0.31984,-0.49575 -1.71115,-0.49575 v 11.67419 h -6.73265 z m 6.73265,4.4298 v 5.75713 q 1.13544,0 1.58321,-0.30385 0.46377,-0.31984 0.46377,-2.03099 v -1.42329 q 0,-1.23139 -0.44778,-1.61519 -0.43178,-0.38381 -1.5992,-0.38381 z m 10.90657,-4.4298 h 5.0375 q 4.87757,0 6.58872,0.44778 1.72714,0.44778 2.62269,1.47127 0.89556,1.02349 1.11944,2.28686 0.22389,1.24738 0.22389,4.92555 v 9.06748 q 0,3.48627 -0.33583,4.66968 -0.31984,1.16742 -1.13544,1.83909 -0.81559,0.65567 -2.01499,0.92753 -1.19941,0.25588 -3.6142,0.25588 h -8.49178 z m 6.73265,4.4298 v 17.03152 q 1.45528,0 1.79111,-0.57571 0.33583,-0.59171 0.33583,-3.18242 v -10.05899 q 0,-1.75913 -0.11194,-2.25488 -0.11195,-0.49575 -0.51175,-0.71964 -0.3998,-0.23988 -1.50325,-0.23988 z m 27.36239,-4.4298 -3.4223,25.89112 h -10.21891 l -3.88607,-25.89112 h 7.10047 q 1.23139,10.69868 1.75912,18.087 0.52774,-7.46828 1.10345,-13.27339 l 0.46377,-4.81361 z"
       id="text32"
       style="-inkscape-font-specification:Impact;fill:#ffffff;stroke-width:1.14358"
       aria-label="OUVERT SUR RDV" />
    <path
       d="m 45.792302,136.64582 h 5.309337 q 2.153787,0 3.305813,0.3381 1.164548,0.33809 1.740561,0.97672 0.588535,0.63862 0.788888,1.55273 0.212874,0.90158 0.212874,2.80493 v 1.7656 q 0,1.94092 -0.400705,2.82998 -0.400704,0.88906 -1.477598,1.3649 -1.064372,0.47584 -2.792411,0.47584 h -1.414988 v 8.16436 h -5.271771 z m 5.271771,3.4686 v 5.15908 q 0.225396,0.0125 0.388182,0.0125 0.726277,0 1.001762,-0.35062 0.288006,-0.36314 0.288006,-1.49012 v -1.66543 q 0,-1.03933 -0.325572,-1.35238 -0.325573,-0.31305 -1.352378,-0.31305 z m 19.647051,8.40228 q 0,3.05537 -0.150264,4.33262 -0.137743,1.26472 -0.901586,2.31657 -0.751321,1.05185 -2.041089,1.61534 -1.289769,0.56349 -3.005286,0.56349 -1.627862,0 -2.930153,-0.52592 -1.289768,-0.53845 -2.078655,-1.60282 -0.788887,-1.06437 -0.939152,-2.31657 -0.150264,-1.25221 -0.150264,-4.38271 v -3.4686 q 0,-3.05537 0.137742,-4.3201 0.150265,-1.27724 0.901586,-2.32909 0.763843,-1.05185 2.053611,-1.61534 1.289769,-0.5635 3.005285,-0.5635 1.627863,0 2.917631,0.53845 1.302291,0.52593 2.091178,1.5903 0.788887,1.06437 0.939152,2.31657 0.150264,1.2522 0.150264,4.38271 z m -5.271771,-6.66172 q 0,-1.41498 -0.162786,-1.80317 -0.150265,-0.4007 -0.638623,-0.4007 -0.413227,0 -0.638624,0.32557 -0.212874,0.31305 -0.212874,1.8783 v 9.46665 q 0,1.76561 0.137742,2.17883 0.150265,0.41323 0.676189,0.41323 0.538447,0 0.688712,-0.47584 0.150264,-0.47583 0.150264,-2.26648 z m 19.221304,-5.20916 v 13.54883 q 0,2.30405 -0.150264,3.2432 -0.150265,0.92663 -0.889064,1.91587 -0.738799,0.97672 -1.953435,1.49012 -1.202114,0.50088 -2.842499,0.50088 -1.815693,0 -3.205638,-0.60105 -1.389944,-0.60106 -2.078655,-1.56526 -0.688711,-0.96419 -0.813931,-2.02856 -0.125221,-1.0769 -0.125221,-4.50793 v -11.9961 h 5.271771 v 15.20174 q 0,1.32733 0.137743,1.70299 0.150264,0.36314 0.588535,0.36314 0.50088,0 0.638623,-0.4007 0.150264,-0.41323 0.150264,-1.9284 v -14.93877 z m 2.041088,0 h 3.731562 q 3.731562,0 5.046374,0.28801 1.327335,0.28801 2.153788,1.4776 0.838976,1.17707 0.838976,3.76913 0,2.36666 -0.588535,3.18059 -0.588535,0.81393 -2.316574,0.97672 1.565252,0.38818 2.103699,1.03933 0.538447,0.65114 0.663667,1.20211 0.137743,0.53845 0.137743,2.99276 v 5.34691 h -4.896111 v -6.73685 q 0,-1.62786 -0.262962,-2.01605 -0.250441,-0.38818 -1.339857,-0.38818 v 9.14108 h -5.27177 z m 5.27177,3.4686 v 4.50793 q 0.889064,0 1.239681,-0.23792 0.363138,-0.25044 0.363138,-1.59029 v -1.11446 q 0,-0.9642 -0.350616,-1.26473 -0.338095,-0.30053 -1.252203,-0.30053 z m 18.332245,-3.4686 v 16.21602 h 3.20563 v 4.05714 h -8.4774 v -20.27316 z m 4.48288,0 h 8.79046 v 4.05714 h -3.51869 v 3.84426 h 3.29329 v 3.85678 h -3.29329 v 4.45784 h 3.86931 v 4.05714 h -9.14108 z m 21.82588,6.13579 h -4.89611 v -1.50264 q 0,-1.05185 -0.18783,-1.33986 -0.18783,-0.288 -0.6261,-0.288 -0.47583,0 -0.72627,0.38818 -0.23792,0.38818 -0.23792,1.17707 0,1.01428 0.27548,1.52769 0.26296,0.5134 1.49012,1.23968 3.51869,2.09118 4.4328,3.43103 0.91411,1.33986 0.91411,4.3201 0,2.16631 -0.51341,3.19311 -0.50088,1.02681 -1.95343,1.72804 -1.45256,0.68871 -3.38095,0.68871 -2.11622,0 -3.61886,-0.8014 -1.49012,-0.80141 -1.95344,-2.04109 -0.46331,-1.23968 -0.46331,-3.51869 v -1.32734 h 4.89611 v 2.46684 q 0,1.13951 0.20035,1.46508 0.21287,0.32557 0.7388,0.32557 0.52592,0 0.77636,-0.41323 0.26297,-0.41322 0.26297,-1.22715 0,-1.79065 -0.48836,-2.34162 -0.50088,-0.55097 -2.46684,-1.84074 -1.96596,-1.30229 -2.60458,-1.89082 -0.63862,-0.58854 -1.06437,-1.62787 -0.41323,-1.03932 -0.41323,-2.65467 0,-2.32909 0.58854,-3.40599 0.60105,-1.07689 1.92839,-1.67795 1.32733,-0.61358 3.20563,-0.61358 2.05362,0 3.49365,0.66367 1.45255,0.66367 1.91587,1.67795 0.47583,1.00176 0.47583,3.41851 z m 6.61163,-6.13579 h 5.30933 q 2.15379,0 3.30582,0.3381 1.16455,0.33809 1.74056,0.97672 0.58853,0.63862 0.78889,1.55273 0.21287,0.90158 0.21287,2.80493 v 1.7656 q 0,1.94092 -0.4007,2.82998 -0.40071,0.88906 -1.4776,1.3649 -1.06437,0.47584 -2.79241,0.47584 h -1.41499 v 8.16436 h -5.27177 z m 5.27177,3.4686 v 5.15908 q 0.22539,0.0125 0.38818,0.0125 0.72628,0 1.00176,-0.35062 0.28801,-0.36314 0.28801,-1.49012 v -1.66543 q 0,-1.03933 -0.32557,-1.35238 -0.32558,-0.31305 -1.35238,-0.31305 z m 7.60087,-3.4686 h 3.73156 q 3.73156,0 5.04638,0.28801 1.32733,0.28801 2.15378,1.4776 0.83898,1.17707 0.83898,3.76913 0,2.36666 -0.58854,3.18059 -0.58853,0.81393 -2.31657,0.97672 1.56525,0.38818 2.1037,1.03933 0.53845,0.65114 0.66367,1.20211 0.13774,0.53845 0.13774,2.99276 v 5.34691 h -4.89611 v -6.73685 q 0,-1.62786 -0.26296,-2.01605 -0.25044,-0.38818 -1.33986,-0.38818 v 9.14108 h -5.27177 z m 5.27177,3.4686 v 4.50793 q 0.88906,0 1.23968,-0.23792 0.36314,-0.25044 0.36314,-1.59029 v -1.11446 q 0,-0.9642 -0.35062,-1.26473 -0.33809,-0.30053 -1.2522,-0.30053 z m 20.5862,8.40228 q 0,3.05537 -0.15026,4.33262 -0.13774,1.26472 -0.90159,2.31657 -0.75132,1.05185 -2.04108,1.61534 -1.28977,0.56349 -3.00529,0.56349 -1.62786,0 -2.93015,-0.52592 -1.28977,-0.53845 -2.07866,-1.60282 -0.78889,-1.06437 -0.93915,-2.31657 -0.15026,-1.25221 -0.15026,-4.38271 v -3.4686 q 0,-3.05537 0.13774,-4.3201 0.15026,-1.27724 0.90158,-2.32909 0.76385,-1.05185 2.05362,-1.61534 1.28976,-0.5635 3.00528,-0.5635 1.62786,0 2.91763,0.53845 1.30229,0.52593 2.09118,1.5903 0.78889,1.06437 0.93915,2.31657 0.15026,1.2522 0.15026,4.38271 z m -5.27177,-6.66172 q 0,-1.41498 -0.16278,-1.80317 -0.15027,-0.4007 -0.63863,-0.4007 -0.41322,0 -0.63862,0.32557 -0.21287,0.31305 -0.21287,1.8783 v 9.46665 q 0,1.76561 0.13774,2.17883 0.15026,0.41323 0.67619,0.41323 0.53845,0 0.68871,-0.47584 0.15026,-0.47583 0.15026,-2.26648 z"
       id="text32-4"
       style="-inkscape-font-specification:Impact;fill:#ffffff;stroke-width:0.89544"
       aria-label="POUR LES PRO" />
  </g>
</svg>
