<?xml version="1.0" encoding="UTF-8" standalone="no"?>
<!-- Created with Inkscape (http://www.inkscape.org/) -->

<svg
   width="240.42473mm"
   height="101.0042mm"
   viewBox="0 0 240.42473 101.0042"
   version="1.1"
   id="svg1"
   inkscape:version="1.3 (0e150ed6c4, 2023-07-21)"
   sodipodi:docname="open_sign_nonvect.svg"
   xmlns:inkscape="http://www.inkscape.org/namespaces/inkscape"
   xmlns:sodipodi="http://sodipodi.sourceforge.net/DTD/sodipodi-0.dtd"
   xmlns="http://www.w3.org/2000/svg"
   xmlns:svg="http://www.w3.org/2000/svg">
  <sodipodi:namedview
     id="namedview1"
     pagecolor="#ffffff"
     bordercolor="#000000"
     borderopacity="0.25"
     inkscape:showpageshadow="2"
     inkscape:pageopacity="0.0"
     inkscape:pagecheckerboard="0"
     inkscape:deskcolor="#d1d1d1"
     inkscape:document-units="mm"
     inkscape:zoom="0.27118408"
     inkscape:cx="661.91201"
     inkscape:cy="243.37712"
     inkscape:window-width="799"
     inkscape:window-height="688"
     inkscape:window-x="1913"
     inkscape:window-y="0"
     inkscape:window-maximized="0"
     inkscape:current-layer="layer1" />
  <defs
     id="defs1">
    <clipPath
       clipPathUnits="userSpaceOnUse"
       id="clipPath7">
      <path
         d="M 0,500 H 500 V 0 H 0 Z"
         transform="translate(-385.05271,-275.6235)"
         id="path7" />
    </clipPath>
    <clipPath
       clipPathUnits="userSpaceOnUse"
       id="clipPath16">
      <path
         d="M 0,500 H 500 V 0 H 0 Z"
         transform="translate(-252.68071,-381.24611)"
         id="path16" />
    </clipPath>
    <clipPath
       clipPathUnits="userSpaceOnUse"
       id="clipPath21">
      <path
         d="M 0,500 H 500 V 0 H 0 Z"
         transform="translate(-162.78711,-243.21581)"
         id="path21" />
    </clipPath>
    <clipPath
       clipPathUnits="userSpaceOnUse"
       id="clipPath23">
      <path
         d="M 0,500 H 500 V 0 H 0 Z"
         transform="translate(-371.43551,-243.21581)"
         id="path23" />
    </clipPath>
    <clipPath
       clipPathUnits="userSpaceOnUse"
       id="clipPath31">
      <path
         d="M 0,500 H 500 V 0 H 0 Z"
         transform="translate(-90.4966,-176.7305)"
         id="path31" />
    </clipPath>
  </defs>
  <g
     inkscape:label="Calque 1"
     inkscape:groupmode="layer"
     id="layer1"
     transform="translate(8.6565671,-67.659767)">
    <rect
       style="fill:#377137;fill-opacity:1;stroke-width:0.488977"
       id="rect31"
       width="239.45599"
       height="93.975189"
       x="-7.6878257"
       y="67.659767"
       ry="17.168541" />
    <path
       id="path20"
       d="m 0,0 h -49.882 c -0.866,0 -0.866,-1.342 0,-1.342 H 0 C 0.865,-1.342 0.865,0 0,0"
       style="fill:#ffffff;fill-opacity:1;fill-rule:nonzero;stroke:none"
       transform="matrix(0.77800601,0,0,-0.77800601,38.836446,94.140858)"
       clip-path="url(#clipPath21)" />
    <path
       id="path22"
       d="m 0,0 h -49.881 c -0.866,0 -0.866,-1.342 0,-1.342 H 0 C 0.865,-1.342 0.865,0 0,0"
       style="fill:#ffffff;fill-opacity:1;fill-rule:nonzero;stroke:none"
       transform="matrix(0.77800601,0,0,-0.77800601,227.36307,94.140858)"
       clip-path="url(#clipPath23)" />
    <path
       id="path30"
       d="m 0,0 h -1.073 v -16.797 c 0,-6.895 5.61,-12.505 12.507,-12.505 h 19.604 v 1.073 H 11.433 C 5.128,-28.229 0,-23.1 0,-16.797 Z"
       style="fill:#ffffff;fill-opacity:1;fill-rule:nonzero;stroke:none"
       transform="matrix(0.77800601,0,0,-0.77800601,-7.8217667,145.86683)"
       clip-path="url(#clipPath31)" />
    <text
       xml:space="preserve"
       style="font-style:normal;font-variant:normal;font-weight:normal;font-stretch:normal;font-size:22.3759px;line-height:1;font-family:'MV Boli';-inkscape-font-specification:'MV Boli';fill:#ffffff;fill-opacity:1;stroke-width:0.78129"
       x="41.07"
       y="100.71896"
       id="text31"><tspan
         sodipodi:role="line"
         id="tspan31"
         x="41.07"
         y="100.71896"
         style="font-style:normal;font-variant:normal;font-weight:normal;font-stretch:normal;font-family:'MV Boli';-inkscape-font-specification:'MV Boli';fill:#ffffff;stroke-width:0.78129">Nous sommes</tspan></text>
    <text
       xml:space="preserve"
       style="font-style:normal;font-variant:normal;font-weight:normal;font-stretch:normal;font-size:52.8872px;line-height:1;font-family:Impact;-inkscape-font-specification:Impact;fill:#ffffff;fill-opacity:1;stroke-width:1.84665"
       x="33.856464"
       y="152.24651"
       id="text32"><tspan
         sodipodi:role="line"
         id="tspan32"
         x="33.856464"
         y="152.24651"
         style="stroke-width:1.84665">OUVERT</tspan></text>
  </g>
</svg>
